<?xml version="1.0" encoding="utf-8"?>
<!-- Generator: Adobe Illustrator 16.0.0, SVG Export Plug-In . SVG Version: 6.00 Build 0)  -->
<!DOCTYPE svg PUBLIC "-//W3C//DTD SVG 1.1//EN" "http://www.w3.org/Graphics/SVG/1.1/DTD/svg11.dtd">
<svg version="1.1" id="Layer_1" xmlns="http://www.w3.org/2000/svg" xmlns:xlink="http://www.w3.org/1999/xlink" x="0px" y="0px"
	 width="100px" height="100px" viewBox="0 0 100 100" enable-background="new 0 0 100 100" xml:space="preserve">
<polygon fill="#66B745" points="37.253,-0.041 0,0 100,100 100,62.705 "/>
<g enable-background="new    ">
	<path fill="#FFFFFF" d="M26.824,15.479l-3.338-3.338l7.017-7.017l3.258,3.258c1.433,1.433,1.604,3.027,0.501,4.13l-0.021,0.02
		c-0.792,0.793-1.654,0.812-2.436,0.592c0.501,1.123,0.53,2.096-0.412,3.037l-0.02,0.02C30.092,17.464,28.408,17.063,26.824,15.479z
		 M30.052,14.437c0.471-0.471,0.411-1.111-0.381-1.904l-1.784-1.783l-1.543,1.543l1.834,1.834c0.682,0.682,1.333,0.852,1.854,0.33
		L30.052,14.437z M32.467,11.239c0.461-0.461,0.361-1.082-0.291-1.733l-1.524-1.524l-1.483,1.484l1.424,1.424
		c0.681,0.681,1.333,0.892,1.854,0.37L32.467,11.239z"/>
	<path fill="#FFFFFF" d="M30.725,19.38l7.017-7.016l5.292,5.291l-1.374,1.374l-3.759-3.759l-1.423,1.424l3.308,3.308l-1.374,1.374
		l-3.308-3.309l-1.473,1.473l3.809,3.809l-1.374,1.374L30.725,19.38z"/>
	<path fill="#FFFFFF" d="M39.837,28.692c-1.062-1.062-1.764-2.505-1.854-4.099l2.005-0.181c0.11,1.152,0.44,2.146,1.242,2.947
		c0.631,0.631,1.264,0.762,1.674,0.352l0.02-0.021c0.391-0.392,0.351-0.832-0.521-2.306c-1.052-1.773-1.573-3.078-0.18-4.471
		l0.02-0.02c1.273-1.273,3.137-1.094,4.571,0.34c1.022,1.023,1.574,2.216,1.714,3.498l-1.965,0.361
		c-0.19-1.053-0.541-1.924-1.132-2.516s-1.172-0.631-1.513-0.291l-0.021,0.021c-0.46,0.46-0.311,0.911,0.591,2.435
		c1.053,1.794,1.343,3.106,0.121,4.329l-0.02,0.021C43.195,30.487,41.351,30.206,39.837,28.692z"/>
	<path fill="#FFFFFF" d="M52.478,29.946l-5.593,5.594l-1.544-1.545l5.593-5.593l-2.135-2.136l1.423-1.423l5.813,5.813l-1.423,1.424
		L52.478,29.946z"/>
	<path fill="#FFFFFF" d="M56.759,45.515l-1.363-1.363l4.23-9.903l1.704,1.704l-3.107,6.775l6.775-3.107l1.664,1.664L56.759,45.515z"
		/>
	<path fill="#FFFFFF" d="M64.948,53.604l0.933-2.216l-2.967-2.967l-2.216,0.933l-1.573-1.573l10.073-4.061l1.424,1.424l-4.06,10.074
		L64.948,53.604z M68.035,46.267l-3.207,1.343l1.864,1.864L68.035,46.267z"/>
	<path fill="#FFFFFF" d="M67.646,56.302l7.017-7.017l1.544,1.544l-5.613,5.613l3.498,3.498l-1.404,1.402L67.646,56.302z"/>
	<path fill="#FFFFFF" d="M76.468,65.344c-1.884-1.884-1.985-4.089,0.081-6.155l4.009-4.009l1.544,1.544l-3.97,3.969
		c-1.144,1.143-1.163,2.305-0.22,3.248c0.941,0.941,2.084,0.942,3.197-0.17l4.02-4.02l1.543,1.543l-3.959,3.959
		C80.588,67.378,78.352,67.228,76.468,65.344z"/>
	<path fill="#FFFFFF" d="M81.23,69.886l7.017-7.017l5.292,5.292l-1.373,1.374l-3.76-3.759l-1.423,1.423l3.308,3.308l-1.373,1.374
		l-3.309-3.308l-1.473,1.473l3.81,3.809l-1.374,1.373L81.23,69.886z"/>
</g>
</svg>
