<?xml version="1.0" encoding="utf-8"?>
<!-- Generator: Adobe Illustrator 16.0.0, SVG Export Plug-In . SVG Version: 6.00 Build 0)  -->
<!DOCTYPE svg PUBLIC "-//W3C//DTD SVG 1.1//EN" "http://www.w3.org/Graphics/SVG/1.1/DTD/svg11.dtd">
<svg version="1.1" id="Layer_1" xmlns="http://www.w3.org/2000/svg" xmlns:xlink="http://www.w3.org/1999/xlink" x="0px" y="0px"
	 width="32px" height="32px" viewBox="0 0 32 32" enable-background="new 0 0 32 32" xml:space="preserve">
<path fill="#4D8E2B" d="M30.919,5.547c-0.791-0.226-1.615,0.232-1.842,1.023L28.96,6.979H15.067l-0.209-1.674
	C14.765,4.559,14.131,4,13.379,4H9.656c-0.823,0-1.49,0.667-1.49,1.49c0,0.823,0.667,1.489,1.49,1.489h2.408l1.327,10.612
	c0.093,0.745,0.727,1.305,1.479,1.305H27.53c0.666,0,1.25-0.44,1.433-1.081l2.979-10.427C32.167,6.597,31.709,5.772,30.919,5.547
	L30.919,5.547z M20.083,12.938v-1.49h2.979v1.49H20.083z M23.062,14.427v1.49h-2.979v-1.49H23.062z M20.083,9.958V8.469h2.979v1.489
	H20.083z M15.254,8.469h3.339v1.489H15.44L15.254,8.469z M15.626,11.448h2.967v1.49h-2.781L15.626,11.448z M15.999,14.427h2.595
	v1.49h-2.409L15.999,14.427z M26.407,15.917h-1.855v-1.49h2.281L26.407,15.917L26.407,15.917z M27.259,12.938h-2.707v-1.49h3.133
	L27.259,12.938L27.259,12.938z M28.11,9.958h-3.559V8.469h3.984L28.11,9.958L28.11,9.958z M14.125,22.619
	c0-1.233,1-2.234,2.234-2.234s2.234,1.001,2.234,2.234c0,1.234-1,2.234-2.234,2.234S14.125,23.854,14.125,22.619z M23.062,22.619
	c0-1.233,1-2.234,2.234-2.234s2.234,1.001,2.234,2.234c0,1.234-1,2.234-2.234,2.234S23.062,23.854,23.062,22.619z"/>
<path fill="#4D8E2B" d="M8.628,14.05H5.333v-3.295c0-0.433-0.351-0.47-0.785-0.47c-0.433,0-0.784,0.037-0.784,0.47v3.295H0.47
	C0.037,14.05,0,14.402,0,14.834c0,0.434,0.037,0.785,0.47,0.785h3.294v3.295c0,0.434,0.352,0.471,0.784,0.471
	c0.434,0,0.785-0.037,0.785-0.471v-3.295h3.295c0.434,0,0.471-0.351,0.471-0.785C9.1,14.402,9.062,14.05,8.628,14.05z"/>
</svg>
