<?xml version="1.0" encoding="utf-8"?>
<!-- Generator: Adobe Illustrator 16.0.0, SVG Export Plug-In . SVG Version: 6.00 Build 0)  -->
<!DOCTYPE svg PUBLIC "-//W3C//DTD SVG 1.1//EN" "http://www.w3.org/Graphics/SVG/1.1/DTD/svg11.dtd">
<svg version="1.1" id="Layer_1" xmlns="http://www.w3.org/2000/svg" xmlns:xlink="http://www.w3.org/1999/xlink" x="0px" y="0px"
	 width="150px" height="50px" viewBox="0 0 150 50" enable-background="new 0 0 150 50" xml:space="preserve">
<path fill="#D2F100" d="M23.754,28.54V12.496c0-0.079,0,0-4.875-0.707c-4.876-0.708-7-3.146-7-3.146v0.003
	c-0.031,0.035-2.156,2.44-6.995,3.143c-4.876,0.707-4.876,0.629-4.876,0.707V28.54c0,0-0.314,2.674,2.989,5.978
	c3.303,3.301,8.415,6.215,8.415,6.215l0.467,0.543v0.004h0.002h0.002v-0.004l0.468-0.543c0,0,5.112-2.914,8.415-6.215
	C24.07,31.214,23.754,28.54,23.754,28.54z M11.869,32.999c-5.206,0-9.439-4.233-9.439-9.437c0-5.206,4.234-9.441,9.439-9.441
	c5.204,0,9.439,4.235,9.439,9.441C21.308,28.764,17.073,32.999,11.869,32.999z"/>
<g>
	<path fill="#D2F100" d="M7.744,20.968c0,0,2.495,0.353,4.128,0.396C13.505,21.321,16,20.968,16,20.968
		c0.734-0.105,1.805-0.409,2.597-0.594c-1.198-2.517-3.759-4.268-6.728-4.268c-2.972,0-5.536,1.752-6.731,4.274
		C5.934,20.569,6.995,20.861,7.744,20.968z"/>
	<path fill="#D2F100" d="M13.056,30.91c3.547-0.574,6.266-3.648,6.266-7.349c0-0.397-0.041-0.782-0.101-1.16
		C17.328,22.352,13.219,22.773,13.056,30.91z"/>
	<path fill="#D2F100" d="M4.515,22.397c-0.06,0.379-0.101,0.767-0.101,1.165c0,3.702,2.722,6.782,6.269,7.352
		C10.518,22.772,6.396,22.336,4.515,22.397z"/>
</g>
<g enable-background="new    ">
	<path fill="#DAE7F2" d="M28.64,12.604h8.903c8.244,0,13.025,4.748,13.025,11.409v0.065c0,6.661-4.847,11.607-13.157,11.607H28.64
		V12.604z M37.642,30.014c3.825,0,6.364-2.11,6.364-5.836v-0.066c0-3.692-2.539-5.836-6.364-5.836h-2.605v11.738H37.642z"/>
	<path fill="#DAE7F2" d="M53.87,12.604h18.465v5.605H60.267v3.924h10.915v5.31H60.267v8.243H53.87V12.604z"/>
	<path fill="#DAE7F2" d="M75.24,12.604h5.969l9.496,12.2v-12.2h6.331v23.082h-5.605l-9.859-12.662v12.662H75.24V12.604z"/>
	<path fill="#DAE7F2" d="M101.129,12.604h8.902c8.244,0,13.025,4.748,13.025,11.409v0.065c0,6.661-4.848,11.607-13.156,11.607
		h-8.771V12.604z M110.131,30.014c3.825,0,6.364-2.11,6.364-5.836v-0.066c0-3.692-2.539-5.836-6.364-5.836h-2.605v11.738H110.131z"
		/>
	<path fill="#DAE7F2" d="M126.358,12.604h10.915c3.527,0,5.968,0.924,7.518,2.506c1.352,1.319,2.044,3.1,2.044,5.375v0.066
		c0,3.527-1.879,5.869-4.748,7.089l5.507,8.046h-7.387l-4.648-6.99h-0.066h-2.736v6.99h-6.397V12.604z M136.977,23.683
		c2.176,0,3.429-1.055,3.429-2.736V20.88c0-1.813-1.319-2.736-3.462-2.736h-4.188v5.539H136.977z"/>
</g>
</svg>
