<?xml version="1.0" encoding="utf-8"?>
<!-- Generator: Adobe Illustrator 16.0.0, SVG Export Plug-In . SVG Version: 6.00 Build 0)  -->
<!DOCTYPE svg PUBLIC "-//W3C//DTD SVG 1.1//EN" "http://www.w3.org/Graphics/SVG/1.1/DTD/svg11.dtd">
<svg version="1.1" id="Layer_1" xmlns="http://www.w3.org/2000/svg" xmlns:xlink="http://www.w3.org/1999/xlink" x="0px" y="0px"
	 width="200px" height="140px" viewBox="0 0 200 140" enable-background="new 0 0 200 140" xml:space="preserve">
<circle fill="#515151" cx="67.5" cy="91.503" r="11.316"/>
<path fill="#6CA642" d="M166.834,60.167c-8.333-3.5-12-5-13.334-6.333s-11-15-15.333-20.667s-8-5.167-8-5.167S93,28,70,28
	s-23.667,0.833-26.667,3.167s-2.667,11-2.667,11V69c0,0-0.166,21.167-0.166,24s3.833,3.833,3.833,3.833H52h0.252
	c-0.584-1.671-0.918-3.46-0.918-5.33c0-8.929,7.238-16.167,16.167-16.167s16.167,7.238,16.167,16.167c0,1.87-0.334,3.659-0.918,5.33
	h54.503c-0.584-1.671-0.918-3.46-0.918-5.33c0-8.929,7.237-16.167,16.166-16.167s16.166,7.238,16.166,16.167
	c0,1.87-0.334,3.659-0.918,5.33h0.086c0,0,4.953,0.001,6.166,0c1.501-0.001,1.669-0.668,2.835-1.668s0.832-3.998,0.832-3.998
	s0-15.5,0-20.667S175.167,63.667,166.834,60.167z"/>
<circle fill="#515151" cx="152.5" cy="91.503" r="11.316"/>
<g>
	<path fill="#C9C9C9" d="M18.667,47.666c-3.86,0-7-2.58-7-5.75s3.14-5.75,7-5.75H52.5c3.86,0,7,2.58,7,5.75s-3.14,5.75-7,5.75
		H18.667z"/>
	<path fill="#FFFFFF" d="M52.5,38.166c2.75,0,5,1.688,5,3.75s-2.25,3.75-5,3.75H18.667c-2.75,0-5-1.688-5-3.75s2.25-3.75,5-3.75
		H52.5 M52.5,34.166H18.667c-4.962,0-9,3.477-9,7.75s4.038,7.75,9,7.75H52.5c4.962,0,9-3.477,9-7.75S57.463,34.166,52.5,34.166
		L52.5,34.166z"/>
</g>
<g>
	<path fill="#C9C9C9" d="M27.667,67.666c-3.86,0-7-2.58-7-5.75s3.14-5.75,7-5.75h16.667c3.86,0,7,2.58,7,5.75s-3.14,5.75-7,5.75
		H27.667z"/>
	<path fill="#FFFFFF" d="M44.334,58.166c2.75,0,5,1.688,5,3.75s-2.25,3.75-5,3.75H27.667c-2.75,0-5-1.688-5-3.75s2.25-3.75,5-3.75
		H44.334 M44.334,54.166H27.667c-4.962,0-9,3.477-9,7.75s4.038,7.75,9,7.75h16.667c4.962,0,9-3.477,9-7.75
		S49.297,54.166,44.334,54.166L44.334,54.166z"/>
</g>
<g>
	<path fill="#C9C9C9" d="M35,86.833c-3.86,0-7-2.579-7-5.75s3.14-5.75,7-5.75h4.833c3.86,0,7,2.579,7,5.75s-3.14,5.75-7,5.75H35z"/>
	<path fill="#FFFFFF" d="M39.834,77.333c2.75,0,5,1.688,5,3.75s-2.25,3.75-5,3.75H35c-2.75,0-5-1.688-5-3.75s2.25-3.75,5-3.75
		H39.834 M39.834,73.333H35c-4.962,0-9,3.477-9,7.75s4.038,7.75,9,7.75h4.833c4.962,0,9-3.477,9-7.75S44.796,73.333,39.834,73.333
		L39.834,73.333z"/>
</g>
</svg>
