<?xml version="1.0" encoding="utf-8"?>
<!-- Generator: Adobe Illustrator 16.0.0, SVG Export Plug-In . SVG Version: 6.00 Build 0)  -->
<!DOCTYPE svg PUBLIC "-//W3C//DTD SVG 1.1//EN" "http://www.w3.org/Graphics/SVG/1.1/DTD/svg11.dtd">
<svg version="1.1" id="Layer_1" xmlns="http://www.w3.org/2000/svg" xmlns:xlink="http://www.w3.org/1999/xlink" x="0px" y="0px"
	 width="600px" height="150px" viewBox="0 0 600 150" enable-background="new 0 0 600 150" xml:space="preserve">
<g enable-background="new    ">
	<path fill="#8E8E8E" d="M126.741,105.372V89.836l-6.697,10.165h-0.136l-6.629-10.063v15.435h-5.134V81.574h5.644l6.255,10.063
		l6.255-10.063h5.644v23.798H126.741z"/>
</g>
<g enable-background="new    ">
	<path fill="#8E8E8E" d="M211.342,86.402v18.97h-5.236v-18.97h-7.241v-4.828h19.718v4.828H211.342z"/>
</g>
<g enable-background="new    ">
	<path fill="#8E8E8E" d="M307.329,105.542h-4.556l-5.371-15.57l-5.372,15.57h-4.556l-8.125-23.968h5.609l4.929,16.114l5.338-16.182
		h4.487l5.337,16.182l4.93-16.114h5.474L307.329,105.542z"/>
</g>
<g enable-background="new    ">
	<path fill="#8E8E8E" d="M375.78,86.402v18.97h-5.235v-18.97h-7.242v-4.828h19.719v4.828H375.78z"/>
	<path fill="#8E8E8E" d="M401.926,105.372v-9.553h-9.655v9.553h-5.235V81.574h5.235v9.417h9.655v-9.417h5.235v23.798H401.926z"/>
</g>
<g enable-background="new    ">
	<path fill="#8E8E8E" d="M471.701,86.334v5.065h11.355v4.76h-11.355v9.213h-5.235V81.574h18.12v4.76H471.701z"/>
</g>
<g enable-background="new    ">
	<path fill="#8E8E8E" d="M563.883,105.712c-3.604,0-7.242-1.258-10.098-3.808l3.094-3.705c2.143,1.768,4.386,2.89,7.105,2.89
		c2.142,0,3.434-0.851,3.434-2.244v-0.068c0-1.325-0.816-2.006-4.793-3.025c-4.794-1.224-7.888-2.55-7.888-7.275v-0.067
		c0-4.318,3.468-7.174,8.329-7.174c3.468,0,6.426,1.088,8.84,3.025l-2.721,3.944c-2.107-1.462-4.182-2.346-6.188-2.346
		s-3.059,0.918-3.059,2.073V88c0,1.563,1.02,2.073,5.133,3.128c4.828,1.258,7.547,2.991,7.547,7.139v0.068
		C572.619,103.061,569.016,105.712,563.883,105.712z"/>
</g>
<g enable-background="new    ">
	<path fill="#8E8E8E" d="M31.807,105.712c-3.604,0-7.241-1.258-10.097-3.808l3.094-3.705c2.142,1.768,4.386,2.89,7.105,2.89
		c2.142,0,3.434-0.851,3.434-2.244v-0.068c0-1.325-0.816-2.006-4.793-3.025c-4.793-1.224-7.887-2.55-7.887-7.275v-0.067
		c0-4.318,3.468-7.174,8.329-7.174c3.468,0,6.425,1.088,8.839,3.025l-2.72,3.944c-2.108-1.462-4.182-2.346-6.188-2.346
		s-3.06,0.918-3.06,2.073V88c0,1.563,1.02,2.073,5.133,3.128c4.828,1.258,7.547,2.991,7.547,7.139v0.068
		C40.544,103.061,36.94,105.712,31.807,105.712z"/>
</g>
<line fill="none" stroke="#8E8E8E" stroke-miterlimit="10" x1="75.707" y1="53.628" x2="75.707" y2="134.131"/>
<line fill="none" stroke="#8E8E8E" stroke-miterlimit="10" x1="164.386" y1="53.628" x2="164.386" y2="134.131"/>
<line fill="none" stroke="#8E8E8E" stroke-miterlimit="10" x1="253.065" y1="53.628" x2="253.065" y2="134.131"/>
<line fill="none" stroke="#8E8E8E" stroke-miterlimit="10" x1="341.744" y1="53.628" x2="341.744" y2="134.131"/>
<line fill="none" stroke="#8E8E8E" stroke-miterlimit="10" x1="430.424" y1="53.628" x2="430.424" y2="134.131"/>
<line fill="none" stroke="#8E8E8E" stroke-miterlimit="10" x1="519.104" y1="53.628" x2="519.104" y2="134.131"/>
<g>
	<g enable-background="new    ">
		<path fill="#8E8E8E" d="M67.118,45.381h0.63v4.228h-0.912v-3.292l-0.731,0.18l-0.192-0.756L67.118,45.381z"/>
		<path fill="#8E8E8E" d="M69.296,46.742l-0.648-0.521c0.414-0.564,0.816-0.87,1.565-0.87c0.894,0,1.445,0.516,1.445,1.302
			c0,0.701-0.36,1.055-1.104,1.631l-0.684,0.527h1.829v0.798h-3.106v-0.731l1.397-1.146c0.522-0.432,0.726-0.659,0.726-1.008
			c0-0.354-0.234-0.545-0.563-0.545C69.83,46.179,69.608,46.358,69.296,46.742z"/>
		<path fill="#8E8E8E" d="M74.329,49.608v-0.348c-0.222,0.246-0.527,0.407-0.971,0.407c-0.606,0-1.104-0.348-1.104-0.983v-0.012
			c0-0.701,0.534-1.025,1.295-1.025c0.324,0,0.558,0.054,0.786,0.132v-0.054c0-0.378-0.234-0.588-0.69-0.588
			c-0.348,0-0.593,0.066-0.887,0.174l-0.228-0.695c0.354-0.156,0.702-0.258,1.248-0.258c0.995,0,1.433,0.516,1.433,1.385v1.865
			H74.329z M74.347,48.313c-0.156-0.072-0.36-0.12-0.582-0.12c-0.39,0-0.63,0.155-0.63,0.443v0.013c0,0.245,0.204,0.39,0.498,0.39
			c0.426,0,0.713-0.234,0.713-0.564V48.313z"/>
		<path fill="#8E8E8E" d="M79.992,49.608v-1.793c0-0.432-0.192-0.653-0.534-0.653s-0.551,0.222-0.551,0.653v1.793h-0.912v-1.793
			c0-0.432-0.192-0.653-0.534-0.653s-0.552,0.222-0.552,0.653v1.793h-0.912v-3.214h0.912v0.455c0.21-0.27,0.486-0.516,0.947-0.516
			c0.42,0,0.738,0.187,0.906,0.51c0.282-0.33,0.618-0.51,1.055-0.51c0.678,0,1.085,0.408,1.085,1.182v2.093H79.992z"/>
	</g>
</g>
<g>
	<g enable-background="new    ">
		<path fill="#8E8E8E" d="M155.168,45.381h0.63v4.228h-0.912v-3.292l-0.731,0.18l-0.192-0.756L155.168,45.381z"/>
		<path fill="#8E8E8E" d="M157.347,46.742l-0.648-0.521c0.414-0.564,0.816-0.87,1.565-0.87c0.894,0,1.445,0.516,1.445,1.302
			c0,0.701-0.36,1.055-1.104,1.631l-0.684,0.527h1.829v0.798h-3.106v-0.731l1.397-1.146c0.522-0.432,0.726-0.659,0.726-1.008
			c0-0.354-0.234-0.545-0.563-0.545C157.88,46.179,157.658,46.358,157.347,46.742z"/>
		<path fill="#8E8E8E" d="M162.379,49.608v-0.348c-0.222,0.246-0.527,0.407-0.971,0.407c-0.606,0-1.104-0.348-1.104-0.983v-0.012
			c0-0.701,0.534-1.025,1.295-1.025c0.324,0,0.558,0.054,0.786,0.132v-0.054c0-0.378-0.234-0.588-0.69-0.588
			c-0.348,0-0.593,0.066-0.887,0.174l-0.228-0.695c0.354-0.156,0.702-0.258,1.248-0.258c0.995,0,1.433,0.516,1.433,1.385v1.865
			H162.379z M162.397,48.313c-0.156-0.072-0.36-0.12-0.582-0.12c-0.39,0-0.63,0.155-0.63,0.443v0.013c0,0.245,0.204,0.39,0.498,0.39
			c0.426,0,0.713-0.234,0.713-0.564V48.313z"/>
		<path fill="#8E8E8E" d="M168.042,49.608v-1.793c0-0.432-0.192-0.653-0.534-0.653s-0.551,0.222-0.551,0.653v1.793h-0.912v-1.793
			c0-0.432-0.192-0.653-0.534-0.653s-0.552,0.222-0.552,0.653v1.793h-0.912v-3.214h0.912v0.455c0.21-0.27,0.486-0.516,0.947-0.516
			c0.42,0,0.738,0.187,0.906,0.51c0.282-0.33,0.618-0.51,1.055-0.51c0.678,0,1.085,0.408,1.085,1.182v2.093H168.042z"/>
	</g>
</g>
<rect x="1.75" y="26.966" fill="#FAA72B" width="139.467" height="6.918"/>
<rect x="496.133" y="26.966" fill="#FAA72B" width="102.301" height="6.918"/>
<rect x="140.923" y="26.966" fill="#66B745" width="355.284" height="6.918"/>
<g>
	<g enable-background="new    ">
		<path fill="#8E8E8E" d="M245.734,45.381h0.63v4.228h-0.912v-3.292l-0.731,0.18l-0.192-0.756L245.734,45.381z"/>
		<path fill="#8E8E8E" d="M247.913,46.742l-0.648-0.521c0.414-0.564,0.816-0.87,1.565-0.87c0.894,0,1.445,0.516,1.445,1.302
			c0,0.701-0.36,1.055-1.104,1.631l-0.684,0.527h1.829v0.798h-3.106v-0.731l1.397-1.146c0.522-0.432,0.726-0.659,0.726-1.008
			c0-0.354-0.234-0.545-0.563-0.545C248.446,46.179,248.224,46.358,247.913,46.742z"/>
		<path fill="#8E8E8E" d="M252.945,49.608v-0.348c-0.222,0.246-0.527,0.407-0.971,0.407c-0.606,0-1.104-0.348-1.104-0.983v-0.012
			c0-0.701,0.534-1.025,1.295-1.025c0.324,0,0.558,0.054,0.786,0.132v-0.054c0-0.378-0.234-0.588-0.69-0.588
			c-0.348,0-0.593,0.066-0.887,0.174l-0.228-0.695c0.354-0.156,0.702-0.258,1.248-0.258c0.995,0,1.433,0.516,1.433,1.385v1.865
			H252.945z M252.963,48.313c-0.156-0.072-0.36-0.12-0.582-0.12c-0.39,0-0.63,0.155-0.63,0.443v0.013c0,0.245,0.204,0.39,0.498,0.39
			c0.426,0,0.713-0.234,0.713-0.564V48.313z"/>
		<path fill="#8E8E8E" d="M258.608,49.608v-1.793c0-0.432-0.192-0.653-0.534-0.653s-0.551,0.222-0.551,0.653v1.793h-0.912v-1.793
			c0-0.432-0.192-0.653-0.534-0.653s-0.552,0.222-0.552,0.653v1.793h-0.912v-3.214h0.912v0.455c0.21-0.27,0.486-0.516,0.947-0.516
			c0.42,0,0.738,0.187,0.906,0.51c0.282-0.33,0.618-0.51,1.055-0.51c0.678,0,1.085,0.408,1.085,1.182v2.093H258.608z"/>
	</g>
</g>
<g>
	<g enable-background="new    ">
		<path fill="#8E8E8E" d="M335.041,45.381h0.631v4.228h-0.912v-3.292l-0.731,0.18l-0.192-0.756L335.041,45.381z"/>
		<path fill="#8E8E8E" d="M337.221,46.742l-0.648-0.521c0.414-0.564,0.816-0.87,1.565-0.87c0.894,0,1.445,0.516,1.445,1.302
			c0,0.701-0.36,1.055-1.104,1.631l-0.684,0.527h1.829v0.798h-3.106v-0.731l1.397-1.146c0.521-0.432,0.725-0.659,0.725-1.008
			c0-0.354-0.233-0.545-0.562-0.545C337.754,46.179,337.531,46.358,337.221,46.742z"/>
		<path fill="#8E8E8E" d="M342.253,49.608v-0.348c-0.222,0.246-0.527,0.407-0.972,0.407c-0.605,0-1.104-0.348-1.104-0.983v-0.012
			c0-0.701,0.534-1.025,1.296-1.025c0.323,0,0.558,0.054,0.786,0.132v-0.054c0-0.378-0.234-0.588-0.69-0.588
			c-0.348,0-0.593,0.066-0.888,0.174l-0.228-0.695c0.354-0.156,0.702-0.258,1.247-0.258c0.996,0,1.434,0.516,1.434,1.385v1.865
			H342.253z M342.271,48.313c-0.156-0.072-0.36-0.12-0.582-0.12c-0.39,0-0.63,0.155-0.63,0.443v0.013c0,0.245,0.204,0.39,0.498,0.39
			c0.426,0,0.714-0.234,0.714-0.564V48.313z"/>
		<path fill="#8E8E8E" d="M347.916,49.608v-1.793c0-0.432-0.192-0.653-0.534-0.653s-0.552,0.222-0.552,0.653v1.793h-0.911v-1.793
			c0-0.432-0.192-0.653-0.534-0.653s-0.551,0.222-0.551,0.653v1.793h-0.912v-3.214h0.912v0.455c0.209-0.27,0.485-0.516,0.947-0.516
			c0.42,0,0.737,0.187,0.905,0.51c0.282-0.33,0.618-0.51,1.056-0.51c0.678,0,1.085,0.408,1.085,1.182v2.093H347.916z"/>
	</g>
</g>
<g>
	<g enable-background="new    ">
		<path fill="#8E8E8E" d="M423.092,45.381h0.629v4.228h-0.911v-3.292l-0.731,0.18l-0.191-0.756L423.092,45.381z"/>
		<path fill="#8E8E8E" d="M425.27,46.742l-0.647-0.521c0.414-0.564,0.815-0.87,1.565-0.87c0.894,0,1.445,0.516,1.445,1.302
			c0,0.701-0.359,1.055-1.104,1.631l-0.684,0.527h1.828v0.798h-3.105v-0.731l1.396-1.146c0.522-0.432,0.727-0.659,0.727-1.008
			c0-0.354-0.234-0.545-0.564-0.545C425.804,46.179,425.582,46.358,425.27,46.742z"/>
		<path fill="#8E8E8E" d="M430.303,49.608v-0.348c-0.222,0.246-0.527,0.407-0.971,0.407c-0.606,0-1.104-0.348-1.104-0.983v-0.012
			c0-0.701,0.533-1.025,1.295-1.025c0.324,0,0.558,0.054,0.785,0.132v-0.054c0-0.378-0.233-0.588-0.689-0.588
			c-0.348,0-0.594,0.066-0.887,0.174l-0.229-0.695c0.354-0.156,0.701-0.258,1.248-0.258c0.994,0,1.433,0.516,1.433,1.385v1.865
			H430.303z M430.32,48.313c-0.155-0.072-0.359-0.12-0.581-0.12c-0.39,0-0.63,0.155-0.63,0.443v0.013c0,0.245,0.204,0.39,0.498,0.39
			c0.426,0,0.713-0.234,0.713-0.564V48.313z"/>
		<path fill="#8E8E8E" d="M435.965,49.608v-1.793c0-0.432-0.191-0.653-0.533-0.653s-0.551,0.222-0.551,0.653v1.793h-0.912v-1.793
			c0-0.432-0.191-0.653-0.533-0.653s-0.553,0.222-0.553,0.653v1.793h-0.911v-3.214h0.911v0.455c0.211-0.27,0.486-0.516,0.947-0.516
			c0.42,0,0.738,0.187,0.906,0.51c0.281-0.33,0.617-0.51,1.055-0.51c0.678,0,1.086,0.408,1.086,1.182v2.093H435.965z"/>
	</g>
</g>
<g>
	<g enable-background="new    ">
		<path fill="#8E8E8E" d="M511.77,45.381h0.631v4.228h-0.912v-3.292l-0.731,0.18l-0.192-0.756L511.77,45.381z"/>
		<path fill="#8E8E8E" d="M513.949,46.742l-0.648-0.521c0.414-0.564,0.816-0.87,1.565-0.87c0.894,0,1.445,0.516,1.445,1.302
			c0,0.701-0.36,1.055-1.104,1.631l-0.684,0.527h1.829v0.798h-3.106v-0.731l1.397-1.146c0.521-0.432,0.725-0.659,0.725-1.008
			c0-0.354-0.233-0.545-0.562-0.545C514.482,46.179,514.26,46.358,513.949,46.742z"/>
		<path fill="#8E8E8E" d="M518.981,49.608v-0.348c-0.222,0.246-0.527,0.407-0.972,0.407c-0.605,0-1.104-0.348-1.104-0.983v-0.012
			c0-0.701,0.534-1.025,1.296-1.025c0.323,0,0.558,0.054,0.786,0.132v-0.054c0-0.378-0.234-0.588-0.69-0.588
			c-0.348,0-0.593,0.066-0.888,0.174l-0.228-0.695c0.354-0.156,0.702-0.258,1.247-0.258c0.996,0,1.434,0.516,1.434,1.385v1.865
			H518.981z M519,48.313c-0.156-0.072-0.36-0.12-0.582-0.12c-0.39,0-0.63,0.155-0.63,0.443v0.013c0,0.245,0.204,0.39,0.498,0.39
			c0.426,0,0.714-0.234,0.714-0.564V48.313z"/>
		<path fill="#8E8E8E" d="M524.645,49.608v-1.793c0-0.432-0.192-0.653-0.534-0.653s-0.552,0.222-0.552,0.653v1.793h-0.911v-1.793
			c0-0.432-0.192-0.653-0.534-0.653s-0.551,0.222-0.551,0.653v1.793h-0.912v-3.214h0.912v0.455c0.209-0.27,0.485-0.516,0.947-0.516
			c0.42,0,0.737,0.187,0.905,0.51c0.282-0.33,0.618-0.51,1.056-0.51c0.678,0,1.085,0.408,1.085,1.182v2.093H524.645z"/>
	</g>
</g>
<g>
	<g enable-background="new    ">
		<path fill="#8E8E8E" d="M484.691,10.674c-0.79-0.6-1.426-0.961-2.455-0.961c-1.492,0-2.247,1.201-2.418,2.78
			c0.6-0.394,1.303-0.773,2.488-0.773c2.385,0,4.221,1.321,4.221,3.845c0,2.472-1.974,4.17-4.583,4.17
			c-1.562,0-2.626-0.446-3.466-1.288c-0.875-0.875-1.424-2.162-1.424-4.564c0-3.724,1.68-6.573,5.269-6.573
			c1.63,0,2.693,0.481,3.758,1.321L484.691,10.674z M481.807,13.917c-1.303,0-2.059,0.721-2.059,1.75
			c0,1.048,0.789,1.803,2.094,1.803s2.06-0.738,2.06-1.784C483.901,14.655,483.111,13.917,481.807,13.917z"/>
		<path fill="#8E8E8E" d="M494.135,19.701c-1.389,0-2.247-0.634-2.864-1.372v3.947h-2.608V10.331h2.608v1.321
			c0.634-0.857,1.51-1.492,2.864-1.492c2.146,0,4.189,1.682,4.189,4.754v0.033C498.324,18.019,496.314,19.701,494.135,19.701z
			 M495.715,14.914c0-1.528-1.03-2.541-2.247-2.541c-1.22,0-2.232,1.013-2.232,2.541v0.033c0,1.528,1.013,2.541,2.232,2.541
			c1.217,0,2.247-0.994,2.247-2.541V14.914z"/>
		<path fill="#8E8E8E" d="M511.682,19.53v-5.131c0-1.236-0.55-1.871-1.529-1.871c-0.977,0-1.578,0.635-1.578,1.871v5.131h-2.607
			v-5.131c0-1.236-0.55-1.871-1.529-1.871c-0.976,0-1.578,0.635-1.578,1.871v5.131h-2.607v-9.199h2.607v1.305
			c0.603-0.771,1.391-1.476,2.712-1.476c1.2,0,2.111,0.531,2.592,1.458c0.806-0.944,1.768-1.458,3.019-1.458
			c1.94,0,3.107,1.167,3.107,3.38v5.99H511.682z"/>
	</g>
</g>
<g>
	<g>
		<line fill="none" stroke="#C4C4C3" stroke-miterlimit="10" x1="140.962" y1="33.988" x2="140.962" y2="35.988"/>
		
			<line fill="none" stroke="#C4C4C3" stroke-miterlimit="10" stroke-dasharray="3.8457,3.8457" x1="140.962" y1="39.833" x2="140.962" y2="130.208"/>
		<line fill="none" stroke="#C4C4C3" stroke-miterlimit="10" x1="140.962" y1="132.131" x2="140.962" y2="134.131"/>
	</g>
</g>
<g>
	<g>
		<line fill="none" stroke="#C4C4C3" stroke-miterlimit="10" x1="496.213" y1="33.988" x2="496.213" y2="35.988"/>
		
			<line fill="none" stroke="#C4C4C3" stroke-miterlimit="10" stroke-dasharray="3.8457,3.8457" x1="496.213" y1="39.833" x2="496.213" y2="130.208"/>
		<line fill="none" stroke="#C4C4C3" stroke-miterlimit="10" x1="496.213" y1="132.131" x2="496.213" y2="134.131"/>
	</g>
</g>
<circle fill="none" stroke="#66B745" stroke-width="5" stroke-miterlimit="10" cx="119.544" cy="92.69" r="30.503"/>
<circle fill="none" stroke="#FAA72B" stroke-width="5" stroke-miterlimit="10" cx="297.532" cy="92.69" r="30.504"/>
<circle fill="none" stroke="#C9C9C9" stroke-width="5" stroke-miterlimit="10" cx="474.414" cy="92.69" r="30.504"/>
<g>
	<g enable-background="new    ">
		<path fill="#8E8E8E" d="M129.191,10.674c-0.79-0.6-1.426-0.961-2.455-0.961c-1.492,0-2.247,1.201-2.418,2.78
			c0.6-0.394,1.303-0.773,2.488-0.773c2.385,0,4.221,1.321,4.221,3.845c0,2.472-1.974,4.17-4.583,4.17
			c-1.562,0-2.626-0.446-3.466-1.288c-0.875-0.875-1.424-2.162-1.424-4.564c0-3.724,1.68-6.573,5.269-6.573
			c1.63,0,2.693,0.481,3.758,1.321L129.191,10.674z M126.307,13.917c-1.303,0-2.059,0.721-2.059,1.75
			c0,1.048,0.789,1.803,2.094,1.803s2.06-0.738,2.06-1.784C128.401,14.655,127.611,13.917,126.307,13.917z"/>
		<path fill="#8E8E8E" d="M138.635,19.701c-1.389,0-2.247-0.634-2.864-1.372v3.947h-2.608V10.331h2.608v1.321
			c0.634-0.857,1.51-1.492,2.864-1.492c2.146,0,4.189,1.682,4.189,4.754v0.033C142.824,18.019,140.814,19.701,138.635,19.701z
			 M140.215,14.914c0-1.528-1.03-2.541-2.247-2.541c-1.22,0-2.232,1.013-2.232,2.541v0.033c0,1.528,1.013,2.541,2.232,2.541
			c1.217,0,2.247-0.994,2.247-2.541V14.914z"/>
		<path fill="#8E8E8E" d="M156.182,19.53v-5.131c0-1.236-0.55-1.871-1.529-1.871c-0.977,0-1.578,0.635-1.578,1.871v5.131h-2.607
			v-5.131c0-1.236-0.55-1.871-1.529-1.871c-0.976,0-1.578,0.635-1.578,1.871v5.131h-2.607v-9.199h2.607v1.305
			c0.603-0.771,1.391-1.476,2.712-1.476c1.2,0,2.111,0.531,2.592,1.458c0.806-0.944,1.768-1.458,3.019-1.458
			c1.94,0,3.107,1.167,3.107,3.38v5.99H156.182z"/>
	</g>
</g>
</svg>
