<?xml version="1.0" encoding="utf-8"?>
<!-- Generator: Adobe Illustrator 16.0.0, SVG Export Plug-In . SVG Version: 6.00 Build 0)  -->
<!DOCTYPE svg PUBLIC "-//W3C//DTD SVG 1.1//EN" "http://www.w3.org/Graphics/SVG/1.1/DTD/svg11.dtd">
<svg version="1.1" id="Layer_1" xmlns="http://www.w3.org/2000/svg" xmlns:xlink="http://www.w3.org/1999/xlink" x="0px" y="0px"
	 width="28px" height="28px" viewBox="0 0 28 28" enable-background="new 0 0 28 28" xml:space="preserve">
<g id="icomoon-ignore">
</g>
<path fill="#51546B" d="M24,21.5c0,1.239-0.439,2.299-1.32,3.18C21.8,25.561,20.74,26,19.5,26h-3v-9.5h3.172l0.469-3.5H16.5v-2.234
	c0-0.563,0.146-0.995,0.438-1.297c0.293-0.302,0.793-0.453,1.5-0.453L20.501,9V5.766c-1-0.094-1.938-0.141-2.812-0.141
	c-1.417,0-2.553,0.419-3.406,1.258c-0.854,0.839-1.281,2.013-1.281,3.523V13h-3.5v3.5h3.5V26h-8.5c-1.239,0-2.299-0.439-3.18-1.32
	c-0.88-0.88-1.32-1.939-1.32-3.18v-15c0-1.239,0.44-2.299,1.32-3.18C2.202,2.439,3.262,2,4.502,2h15c1.239,0,2.299,0.44,3.18,1.32
	c0.881,0.88,1.32,1.94,1.32,3.18v15H24z"/>
</svg>
