<?xml version="1.0" encoding="utf-8"?>
<!-- Generator: Adobe Illustrator 16.0.0, SVG Export Plug-In . SVG Version: 6.00 Build 0)  -->
<!DOCTYPE svg PUBLIC "-//W3C//DTD SVG 1.1//EN" "http://www.w3.org/Graphics/SVG/1.1/DTD/svg11.dtd">
<svg version="1.1" id="Layer_1" xmlns="http://www.w3.org/2000/svg" xmlns:xlink="http://www.w3.org/1999/xlink" x="0px" y="0px"
	 width="230px" height="70px" viewBox="0 0 230 70" enable-background="new 0 0 230 70" xml:space="preserve">
<g>
	<path fill="#969696" d="M9.668,40.66v-5.25H2.497v5.25H1.665V29.457h0.833v5.186h7.171v-5.186H10.5V40.66H9.668z"/>
	<path fill="#969696" d="M17.122,40.117c1.265,0,2.129-0.561,2.801-1.281l0.544,0.48c-0.832,0.896-1.809,1.537-3.377,1.537
		c-2.145,0-4.002-1.713-4.002-4.258v-0.033c0-2.369,1.665-4.257,3.874-4.257c2.289,0,3.746,1.856,3.746,4.273v0.033
		c0,0.111,0,0.16-0.016,0.287H13.92C14.064,38.932,15.521,40.117,17.122,40.117z M19.859,36.195
		c-0.112-1.649-1.057-3.169-2.929-3.169c-1.617,0-2.865,1.36-3.009,3.169H19.859z"/>
	<path fill="#969696" d="M28.595,40.66v-1.359c-0.56,0.783-1.568,1.553-3.121,1.553c-1.521,0-3.153-0.865-3.153-2.562V38.26
		c0-1.697,1.457-2.657,3.569-2.657c1.137,0,1.921,0.144,2.705,0.352v-0.352c0-1.649-1.008-2.497-2.689-2.497
		c-0.993,0-1.809,0.271-2.561,0.656l-0.288-0.688c0.896-0.416,1.777-0.704,2.897-0.704c2.097,0,3.41,1.088,3.41,3.201v5.089H28.595z
		 M28.611,36.676c-0.688-0.178-1.601-0.369-2.769-0.369c-1.729,0-2.689,0.77-2.689,1.904v0.033c0,1.184,1.121,1.873,2.369,1.873
		c1.665,0,3.089-1.025,3.089-2.514V36.676z"/>
	<path fill="#969696" d="M32.289,40.66V28.976h0.784V40.66H32.289z"/>
	<path fill="#969696" d="M38.881,40.805c-1.264,0-2.289-0.688-2.289-2.24v-5.347h-1.185v-0.72h1.185v-2.609h0.784v2.609h2.865v0.72
		h-2.865v5.267c0,1.168,0.688,1.584,1.633,1.584c0.4,0,0.736-0.08,1.2-0.287v0.734C39.793,40.709,39.393,40.805,38.881,40.805z"/>
	<path fill="#969696" d="M48.771,40.66v-4.849c0-1.681-0.944-2.785-2.593-2.785c-1.601,0-2.833,1.216-2.833,2.913v4.721h-0.784
		V28.976h0.784v5.042c0.544-0.961,1.457-1.713,2.945-1.713c2.064,0,3.265,1.408,3.265,3.361v4.994H48.771z"/>
	<path fill="#969696" d="M55.839,40.949c-0.72,1.713-1.553,2.32-2.721,2.32c-0.624,0-1.072-0.111-1.617-0.352l0.272-0.689
		c0.433,0.209,0.785,0.305,1.393,0.305c0.849,0,1.409-0.496,2.017-1.92l-3.922-8.116h0.913l3.394,7.299l2.945-7.299h0.865
		L55.839,40.949z"/>
	<path fill="#969696" d="M66.51,40.66V29.457h7.971v0.768h-7.139v4.402h6.418v0.768h-6.418v4.499h7.219v0.768H66.51z"/>
	<path fill="#969696" d="M82.656,40.66v-1.359c-0.56,0.783-1.568,1.553-3.121,1.553c-1.521,0-3.153-0.865-3.153-2.562V38.26
		c0-1.697,1.457-2.657,3.569-2.657c1.137,0,1.921,0.144,2.705,0.352v-0.352c0-1.649-1.008-2.497-2.689-2.497
		c-0.993,0-1.809,0.271-2.561,0.656l-0.288-0.688c0.896-0.416,1.776-0.704,2.897-0.704c2.097,0,3.41,1.088,3.41,3.201v5.089H82.656z
		 M82.672,36.676c-0.688-0.178-1.601-0.369-2.769-0.369c-1.729,0-2.689,0.77-2.689,1.904v0.033c0,1.184,1.121,1.873,2.369,1.873
		c1.665,0,3.089-1.025,3.089-2.514V36.676z"/>
	<path fill="#969696" d="M88.876,40.805c-1.264,0-2.289-0.688-2.289-2.24v-5.347h-1.185v-0.72h1.185v-2.609h0.784v2.609h2.865v0.72
		h-2.865v5.267c0,1.168,0.688,1.584,1.633,1.584c0.4,0,0.736-0.08,1.2-0.287v0.734C89.789,40.709,89.388,40.805,88.876,40.805z"/>
	<path fill="#969696" d="M92.571,30.369v-1.072h0.977v1.072H92.571z M92.667,40.66v-8.163h0.784v8.163H92.667z"/>
	<path fill="#969696" d="M102.75,40.66v-4.849c0-1.681-0.944-2.785-2.593-2.785c-1.601,0-2.833,1.216-2.833,2.913v4.721h-0.784
		v-8.163h0.784v1.521c0.544-0.961,1.457-1.713,2.945-1.713c2.064,0,3.265,1.408,3.265,3.361v4.994H102.75z"/>
	<path fill="#969696" d="M109.933,43.254c-1.361,0-2.625-0.416-3.746-1.248l0.464-0.641c0.977,0.752,2.097,1.152,3.297,1.152
		c1.873,0,3.202-1.072,3.202-3.17v-1.184c-0.705,1.008-1.793,1.889-3.41,1.889c-1.969,0-3.921-1.506-3.921-3.842V36.18
		c0-2.354,1.953-3.875,3.921-3.875c1.633,0,2.737,0.864,3.41,1.825v-1.633h0.784v6.899
		C113.934,41.877,112.253,43.254,109.933,43.254z M113.198,36.162c0-1.888-1.681-3.105-3.377-3.105
		c-1.712,0-3.153,1.185-3.153,3.089v0.033c0,1.84,1.473,3.121,3.153,3.121c1.697,0,3.377-1.25,3.377-3.105V36.162z"/>
	<path fill="#969696" d="M116.73,40.66v-1.359h1.057v1.359H116.73z"/>
	<path fill="#969696" d="M133.197,40.66l-3.248-4.354h-3.201v4.354h-1.266V29.457h4.818c2.465,0,4.049,1.328,4.049,3.345
		c0,1.873-1.279,2.961-3.041,3.281l3.441,4.578H133.197z M130.205,30.625h-3.457v4.546h3.441c1.68,0,2.881-0.864,2.881-2.321
		C133.07,31.457,132.014,30.625,130.205,30.625z"/>
	<path fill="#969696" d="M140.332,39.781c1.137,0,1.938-0.465,2.609-1.17l0.768,0.689c-0.832,0.928-1.84,1.553-3.408,1.553
		c-2.273,0-4.131-1.746-4.131-4.322c0-2.401,1.682-4.322,3.971-4.322c2.449,0,3.857,1.952,3.857,4.386c0,0.111,0,0.24-0.016,0.383
		h-6.562C137.596,38.771,138.875,39.781,140.332,39.781z M142.75,36.066c-0.129-1.504-0.994-2.817-2.643-2.817
		c-1.439,0-2.529,1.2-2.688,2.817H142.75z"/>
	<path fill="#969696" d="M146.186,30.577v-1.36h1.41v1.36H146.186z M146.266,40.66v-8.275h1.232v8.275H146.266z"/>
	<path fill="#969696" d="M151.596,40.66h-1.232v-8.275h1.232v1.44c0.543-0.896,1.408-1.616,2.832-1.616
		c2.002,0,3.17,1.345,3.17,3.313v5.137h-1.232v-4.833c0-1.536-0.832-2.497-2.289-2.497c-1.426,0-2.48,1.04-2.48,2.593V40.66z"/>
	<path fill="#969696" d="M166.027,32.385h1.33l-3.602,8.339h-1.09l-3.584-8.339h1.359l2.785,6.867L166.027,32.385z"/>
	<path fill="#969696" d="M172.459,39.781c1.135,0,1.936-0.465,2.607-1.17l0.77,0.689c-0.832,0.928-1.842,1.553-3.41,1.553
		c-2.273,0-4.129-1.746-4.129-4.322c0-2.401,1.68-4.322,3.969-4.322c2.449,0,3.857,1.952,3.857,4.386c0,0.111,0,0.24-0.016,0.383
		h-6.562C169.721,38.771,171.002,39.781,172.459,39.781z M174.875,36.066c-0.127-1.504-0.992-2.817-2.641-2.817
		c-1.441,0-2.529,1.2-2.689,2.817H174.875z"/>
	<path fill="#969696" d="M179.514,40.66h-1.232v-8.275h1.232v1.44c0.543-0.896,1.408-1.616,2.832-1.616
		c2.002,0,3.17,1.345,3.17,3.313v5.137h-1.232v-4.833c0-1.536-0.832-2.497-2.289-2.497c-1.426,0-2.48,1.04-2.48,2.593V40.66z"/>
	<path fill="#969696" d="M189.801,38.309c0,1.008,0.561,1.375,1.393,1.375c0.416,0,0.77-0.08,1.201-0.287v1.057
		c-0.432,0.223-0.896,0.352-1.488,0.352c-1.328,0-2.338-0.656-2.338-2.338v-4.993h-1.152v-1.089h1.152v-2.497h1.232v2.497h2.625
		v1.089h-2.625V38.309z"/>
	<path fill="#969696" d="M198.008,39.781c1.137,0,1.938-0.465,2.609-1.17l0.768,0.689c-0.832,0.928-1.84,1.553-3.408,1.553
		c-2.273,0-4.131-1.746-4.131-4.322c0-2.401,1.682-4.322,3.971-4.322c2.449,0,3.857,1.952,3.857,4.386c0,0.111,0,0.24-0.016,0.383
		h-6.562C195.271,38.771,196.551,39.781,198.008,39.781z M200.426,36.066c-0.129-1.504-0.994-2.817-2.643-2.817
		c-1.439,0-2.529,1.2-2.688,2.817H200.426z"/>
	<path fill="#969696" d="M210.473,40.66v-1.664c-0.672,0.992-1.648,1.84-3.17,1.84c-1.984,0-3.953-1.568-3.953-4.305
		c0-2.721,1.969-4.322,3.953-4.322c1.537,0,2.529,0.832,3.17,1.761v-4.994h1.232V40.66H210.473z M207.527,33.314
		c-1.6,0-2.912,1.185-2.912,3.202c0,1.969,1.344,3.217,2.912,3.217c1.537,0,2.994-1.281,2.994-3.217
		C210.521,34.594,209.064,33.314,207.527,33.314z"/>
	<path fill="#969696" d="M214.311,40.66v-1.68h1.473v1.68H214.311z"/>
</g>
</svg>
