<?xml version="1.0" encoding="utf-8"?>
<!-- Generator: Adobe Illustrator 16.0.0, SVG Export Plug-In . SVG Version: 6.00 Build 0)  -->
<!DOCTYPE svg PUBLIC "-//W3C//DTD SVG 1.1//EN" "http://www.w3.org/Graphics/SVG/1.1/DTD/svg11.dtd">
<svg version="1.1" id="Layer_1" xmlns="http://www.w3.org/2000/svg" xmlns:xlink="http://www.w3.org/1999/xlink" x="0px" y="0px"
	 width="140px" height="140px" viewBox="0 0 140 140" enable-background="new 0 0 140 140" xml:space="preserve">
<path fill="#95C83D" d="M70.059,0.442C31.676,0.442,0.56,31.558,0.56,69.941c0,19.202,7.788,36.583,20.376,49.163l-5.405-12.041
	l48.344-33.188L71,69.75l4.718-7.124l-4.75,7.125l-50.031,49.354c12.575,12.562,29.941,20.334,49.122,20.334
	c38.382,0,69.5-31.114,69.5-69.5C139.559,31.557,108.441,0.442,70.059,0.442z"/>
<path fill="#F06667" d="M70.059,0.442c-7.082,0-13.91,1.069-20.345,3.039c-0.143,0.044-0.286,0.088-0.429,0.133
	c-0.75,0.235-1.493,0.482-2.231,0.741c-0.189,0.066-0.379,0.129-0.567,0.197c-0.783,0.283-1.56,0.578-2.329,0.887
	c-0.274,0.11-0.546,0.225-0.818,0.338c-0.611,0.255-1.22,0.515-1.823,0.787c-0.467,0.211-0.929,0.431-1.391,0.652
	c-0.307,0.147-0.614,0.293-0.918,0.445c-0.534,0.265-1.065,0.535-1.591,0.813c-0.171,0.091-0.341,0.184-0.512,0.276
	c-1.972,1.062-3.902,2.228-5.785,3.494c-0.623,0.419-1.238,0.848-1.846,1.286c-0.013,0.009-0.025,0.018-0.038,0.027
	c-0.623,0.45-1.24,0.912-1.851,1.385c-0.215,0.167-0.424,0.341-0.637,0.51c-0.39,0.31-0.782,0.616-1.167,0.935
	c-0.404,0.335-0.799,0.68-1.195,1.024c-0.187,0.163-0.378,0.319-0.563,0.483c-0.583,0.516-1.156,1.042-1.721,1.577
	c-0.044,0.042-0.089,0.085-0.133,0.127c-0.418,0.398-0.842,0.787-1.252,1.197l0.017,0.016c-3.442,3.445-6.517,7.254-9.181,11.356
	l59.295,37.708l3.354-3.383l51.297-38.204C113.02,11.382,92.817,0.442,70.059,0.442z"/>
<path fill="#398ABC" d="M70.93,69.818L71,69.75L11.744,32.152c-1.253,1.929-2.408,3.927-3.469,5.981l-0.014-0.007
	c-0.787,1.527-1.507,3.079-2.172,4.647c-0.024,0.056-0.05,0.11-0.073,0.166c-0.151,0.358-0.29,0.721-0.435,1.081
	c-0.193,0.479-0.388,0.958-0.57,1.443c-0.091,0.243-0.176,0.488-0.265,0.731c-0.224,0.614-0.442,1.231-0.649,1.854
	c-0.055,0.165-0.106,0.331-0.16,0.496c-0.229,0.708-0.449,1.422-0.656,2.14c-0.029,0.101-0.057,0.202-0.085,0.303
	c-0.223,0.786-0.432,1.577-0.628,2.374c-0.011,0.047-0.023,0.094-0.034,0.141c-0.206,0.848-0.397,1.701-0.572,2.561
	c0,0.003-0.001,0.007-0.002,0.01c-0.879,4.324-1.358,8.792-1.391,13.369c0,0.005,0,0.01,0,0.016
	c-0.001,0.161-0.009,0.32-0.009,0.482c0,0.378,0.022,0.75,0.028,1.127c0.009,0.544,0.02,1.087,0.041,1.63
	c0.021,0.536,0.048,1.069,0.081,1.601c0.031,0.502,0.071,1.003,0.113,1.504c0.046,0.545,0.088,1.091,0.146,1.633
	c0.053,0.489,0.122,0.977,0.185,1.465c0.128,0.992,0.276,1.977,0.445,2.955c0.075,0.435,0.147,0.869,0.231,1.303
	c0.108,0.561,0.227,1.118,0.349,1.674c0.1,0.459,0.205,0.917,0.315,1.375c0.125,0.52,0.25,1.039,0.387,1.555
	c0.148,0.562,0.311,1.123,0.474,1.684c0.118,0.401,0.227,0.807,0.351,1.206c0.298,0.957,0.619,1.908,0.958,2.854
	c0.077,0.214,0.162,0.424,0.241,0.637c0.296,0.8,0.606,1.595,0.933,2.385c0.086,0.207,0.174,0.412,0.262,0.618
	c0.355,0.836,0.728,1.666,1.117,2.491c0.055,0.115,0.108,0.231,0.164,0.347c3.308,6.904,7.811,13.38,13.532,19.102
	c0.008,0.008,0.016,0.015,0.023,0.021l50.11-49.229L70.93,69.818z M70.925,69.794l-0.015,0.014l-0.005-0.003L70.925,69.794z"/>
<g enable-background="new    ">
	<path fill="#FFFFFF" d="M14.476,66.413l-1.305-1.02c1.005-1.41,1.995-2.205,3.87-2.205c2.1,0,3.465,1.274,3.465,3.149
		c0,1.665-0.87,2.565-2.73,4.08l-2.16,1.8h4.995v1.62h-7.59v-1.455l3.615-3.075c1.44-1.215,1.965-1.89,1.965-2.834
		c0-1.035-0.735-1.636-1.695-1.636S15.286,65.363,14.476,66.413z"/>
	<path fill="#FFFFFF" d="M23.191,63.338h6.27v1.636h-4.68l-0.165,2.46c0.495-0.181,0.96-0.301,1.665-0.301
		c2.055,0,3.645,1.08,3.645,3.315c0,2.16-1.56,3.569-3.885,3.569c-1.605,0-2.865-0.645-3.855-1.604l1.14-1.335
		c0.84,0.78,1.725,1.26,2.7,1.26c1.26,0,2.085-0.72,2.085-1.83c0-1.08-0.87-1.755-2.175-1.755c-0.75,0-1.395,0.21-1.935,0.465
		l-1.11-0.734L23.191,63.338z"/>
</g>
<g enable-background="new    ">
	<path fill="#FFFFFF" d="M33.194,65.783c-0.857,0-1.434-0.708-1.434-1.556c0-0.857,0.585-1.574,1.451-1.574
		c0.857,0,1.434,0.708,1.434,1.557C34.646,65.066,34.06,65.783,33.194,65.783z M33.247,68.844h-0.866l4.477-6.12h0.866
		L33.247,68.844z M33.194,63.327c-0.411,0-0.656,0.393-0.656,0.883c0,0.507,0.28,0.9,0.673,0.9c0.411,0,0.656-0.394,0.656-0.883
		C33.867,63.72,33.587,63.327,33.194,63.327z M36.892,68.914c-0.856,0-1.434-0.709-1.434-1.557c0-0.856,0.586-1.574,1.451-1.574
		c0.857,0,1.434,0.709,1.434,1.557C38.344,68.196,37.758,68.914,36.892,68.914z M36.892,66.457c-0.411,0-0.655,0.394-0.655,0.883
		c0,0.507,0.279,0.9,0.673,0.9c0.411,0,0.656-0.394,0.656-0.883C37.565,66.851,37.286,66.457,36.892,66.457z"/>
</g>
<g enable-background="new    ">
	<path fill="#FFFFFF" d="M12.518,85.38c-2.471,0-4.306-1.906-4.306-4.317v-0.023c0-2.387,1.799-4.342,4.377-4.342
		c1.583,0,2.531,0.527,3.31,1.295l-1.175,1.355c-0.647-0.588-1.307-0.947-2.146-0.947c-1.416,0-2.435,1.175-2.435,2.614v0.024
		c0,1.438,0.996,2.638,2.435,2.638c0.959,0,1.547-0.384,2.207-0.983l1.175,1.188C15.097,84.805,14.137,85.38,12.518,85.38z"/>
	<path fill="#FFFFFF" d="M21.014,85.236v-0.695c-0.444,0.491-1.056,0.815-1.943,0.815c-1.211,0-2.207-0.696-2.207-1.967v-0.024
		c0-1.403,1.067-2.051,2.591-2.051c0.647,0,1.115,0.108,1.571,0.264v-0.107c0-0.756-0.468-1.176-1.379-1.176
		c-0.696,0-1.188,0.132-1.775,0.348l-0.456-1.391c0.708-0.312,1.403-0.516,2.495-0.516c1.991,0,2.867,1.031,2.867,2.771v3.729
		H21.014z M21.05,82.646c-0.312-0.144-0.72-0.239-1.164-0.239c-0.78,0-1.259,0.312-1.259,0.887v0.024
		c0,0.492,0.408,0.779,0.996,0.779c0.852,0,1.427-0.468,1.427-1.127V82.646z"/>
	<path fill="#FFFFFF" d="M28.13,80.595c-1.211,0-1.955,0.731-1.955,2.267v2.375h-1.823v-6.429h1.823v1.296
		c0.372-0.888,0.971-1.464,2.051-1.416v1.907H28.13z"/>
	<path fill="#FFFFFF" d="M33.194,85.356c-0.972,0-1.571-0.444-2.003-0.96v0.84h-1.823v-8.755h1.823v3.25
		c0.444-0.6,1.055-1.044,2.003-1.044c1.499,0,2.926,1.176,2.926,3.322v0.024C36.12,84.181,34.717,85.356,33.194,85.356z
		 M34.297,82.01c0-1.067-0.719-1.774-1.571-1.774s-1.559,0.707-1.559,1.774v0.024c0,1.067,0.708,1.775,1.559,1.775
		s1.571-0.696,1.571-1.775V82.01z"/>
	<path fill="#FFFFFF" d="M39.723,85.356c-0.899,0-1.907-0.3-2.758-0.972l0.779-1.199c0.696,0.504,1.427,0.768,2.027,0.768
		c0.528,0,0.768-0.192,0.768-0.479v-0.024c0-0.396-0.624-0.527-1.331-0.743c-0.899-0.265-1.919-0.684-1.919-1.932v-0.023
		c0-1.308,1.055-2.039,2.351-2.039c0.815,0,1.703,0.275,2.399,0.743l-0.696,1.26c-0.636-0.372-1.271-0.6-1.739-0.6
		c-0.443,0-0.671,0.191-0.671,0.443v0.024c0,0.359,0.612,0.527,1.307,0.768c0.899,0.3,1.943,0.731,1.943,1.907v0.023
		C42.181,84.709,41.114,85.356,39.723,85.356z"/>
</g>
<g enable-background="new    ">
	<path fill="#FFFFFF" d="M85.745,77.375v6.704h1.5v1.516h-1.5v2.354h-1.771v-2.354H78.68l-0.345-1.32l5.835-6.899H85.745z
		 M83.975,79.925l-3.449,4.154h3.449V79.925z"/>
	<path fill="#FFFFFF" d="M89.72,77.449h6.27v1.636h-4.68l-0.165,2.46c0.495-0.181,0.96-0.301,1.665-0.301
		c2.055,0,3.646,1.08,3.646,3.315c0,2.16-1.561,3.569-3.886,3.569c-1.604,0-2.864-0.645-3.854-1.604l1.14-1.335
		c0.841,0.78,1.726,1.26,2.7,1.26c1.26,0,2.085-0.72,2.085-1.83c0-1.08-0.87-1.755-2.175-1.755c-0.75,0-1.395,0.21-1.935,0.465
		l-1.11-0.734L89.72,77.449z"/>
</g>
<g enable-background="new    ">
	<path fill="#FFFFFF" d="M99.308,79.894c-0.856,0-1.434-0.708-1.434-1.556c0-0.857,0.585-1.574,1.451-1.574
		c0.856,0,1.435,0.708,1.435,1.557C100.76,79.177,100.174,79.894,99.308,79.894z M99.36,82.954h-0.866l4.477-6.12h0.866
		L99.36,82.954z M99.308,77.438c-0.411,0-0.655,0.393-0.655,0.883c0,0.507,0.279,0.9,0.673,0.9c0.411,0,0.655-0.394,0.655-0.883
		C99.98,77.83,99.701,77.438,99.308,77.438z M103.006,83.024c-0.856,0-1.434-0.709-1.434-1.557c0-0.856,0.586-1.574,1.451-1.574
		c0.857,0,1.434,0.709,1.434,1.557C104.457,82.307,103.871,83.024,103.006,83.024z M103.006,80.567c-0.41,0-0.655,0.394-0.655,0.883
		c0,0.507,0.279,0.9,0.673,0.9c0.411,0,0.656-0.394,0.656-0.883C103.68,80.961,103.399,80.567,103.006,80.567z"/>
</g>
<g enable-background="new    ">
	<path fill="#FFFFFF" d="M74.147,96.829h-1.403v2.519h-1.848v-8.396h3.431c2.003,0,3.214,1.188,3.214,2.902v0.024
		C77.541,95.821,76.03,96.829,74.147,96.829z M75.67,93.891c0-0.827-0.575-1.271-1.498-1.271h-1.428v2.566h1.463
		c0.924,0,1.463-0.552,1.463-1.271V93.891z"/>
	<path fill="#FFFFFF" d="M82.499,94.706c-1.211,0-1.954,0.731-1.954,2.267v2.375h-1.824v-6.429h1.824v1.296
		c0.371-0.888,0.971-1.464,2.051-1.416v1.907H82.499z"/>
	<path fill="#FFFFFF" d="M86.71,99.491c-1.991,0-3.466-1.475-3.466-3.322v-0.023c0-1.847,1.486-3.347,3.49-3.347
		c1.99,0,3.466,1.476,3.466,3.322v0.024C90.2,97.992,88.713,99.491,86.71,99.491z M88.401,96.146c0-0.947-0.685-1.775-1.691-1.775
		c-1.044,0-1.667,0.804-1.667,1.751v0.024c0,0.947,0.684,1.775,1.691,1.775c1.043,0,1.667-0.804,1.667-1.752V96.146z"/>
	<path fill="#FFFFFF" d="M93.694,99.456c-1.115,0-1.871-0.444-1.871-1.932v-3.046h-0.768v-1.56h0.768v-1.643h1.823v1.643h1.512v1.56
		h-1.512v2.746c0,0.42,0.18,0.624,0.588,0.624c0.336,0,0.635-0.084,0.899-0.228v1.463C94.75,99.312,94.307,99.456,93.694,99.456z"/>
	<path fill="#FFFFFF" d="M102.294,96.77H97.82c0.18,0.827,0.756,1.259,1.571,1.259c0.612,0,1.056-0.191,1.56-0.659l1.043,0.923
		c-0.6,0.744-1.463,1.199-2.627,1.199c-1.93,0-3.357-1.354-3.357-3.322v-0.023c0-1.835,1.307-3.347,3.178-3.347
		c2.146,0,3.131,1.668,3.131,3.49v0.024C102.318,96.493,102.307,96.602,102.294,96.77z M99.188,94.263
		c-0.756,0-1.247,0.539-1.391,1.367h2.746C100.436,94.814,99.955,94.263,99.188,94.263z"/>
	<path fill="#FFFFFF" d="M103.713,92.212v-1.619h1.92v1.619H103.713z M103.762,99.348v-6.429h1.822v6.429H103.762z"/>
	<path fill="#FFFFFF" d="M111.367,99.348v-3.586c0-0.863-0.408-1.308-1.104-1.308s-1.139,0.444-1.139,1.308v3.586h-1.824v-6.429
		h1.824v0.912c0.419-0.54,0.959-1.032,1.883-1.032c1.379,0,2.182,0.912,2.182,2.387v4.162H111.367z"/>
</g>
<g enable-background="new    ">
	<path fill="#FFFFFF" d="M58.575,18.481v-1.605h6.945v1.381l-2.925,2.999c1.604,0.21,3.09,1.005,3.09,2.971
		c0,1.949-1.5,3.329-3.675,3.329c-1.83,0-3.135-0.765-4.02-1.845l1.29-1.2c0.75,0.886,1.59,1.38,2.76,1.38
		c1.035,0,1.815-0.63,1.815-1.604c0-1.05-0.93-1.635-2.415-1.635h-0.855l-0.3-1.155l2.835-3.015H58.575z"/>
	<path fill="#FFFFFF" d="M68.248,16.875h6.27v1.636h-4.68l-0.165,2.46c0.495-0.181,0.96-0.301,1.665-0.301
		c2.055,0,3.645,1.08,3.645,3.315c0,2.16-1.56,3.569-3.885,3.569c-1.604,0-2.865-0.645-3.854-1.604l1.14-1.335
		c0.84,0.78,1.725,1.26,2.7,1.26c1.26,0,2.085-0.72,2.085-1.83c0-1.08-0.87-1.755-2.176-1.755c-0.749,0-1.394,0.21-1.934,0.465
		l-1.11-0.734L68.248,16.875z"/>
</g>
<g enable-background="new    ">
	<path fill="#FFFFFF" d="M77.725,19.321c-0.856,0-1.434-0.708-1.434-1.556c0-0.857,0.586-1.574,1.451-1.574
		c0.857,0,1.435,0.708,1.435,1.557C79.177,18.604,78.591,19.321,77.725,19.321z M77.777,22.381h-0.865l4.477-6.12h0.865
		L77.777,22.381z M77.725,16.865c-0.41,0-0.655,0.393-0.655,0.883c0,0.507,0.279,0.9,0.673,0.9c0.411,0,0.656-0.394,0.656-0.883
		C78.398,17.257,78.118,16.865,77.725,16.865z M81.423,22.452c-0.856,0-1.434-0.709-1.434-1.557c0-0.856,0.586-1.574,1.451-1.574
		c0.857,0,1.435,0.709,1.435,1.557C82.875,21.734,82.289,22.452,81.423,22.452z M81.423,19.995c-0.41,0-0.655,0.394-0.655,0.883
		c0,0.507,0.279,0.9,0.673,0.9c0.411,0,0.656-0.394,0.656-0.883C82.097,20.388,81.816,19.995,81.423,19.995z"/>
</g>
<g enable-background="new    ">
	<path fill="#FFFFFF" d="M60.256,32.056v1.787h4.006v1.68h-4.006v3.25h-1.847v-8.396h6.393v1.679H60.256z"/>
	<path fill="#FFFFFF" d="M69.554,38.773v-0.695c-0.444,0.491-1.056,0.815-1.943,0.815c-1.211,0-2.207-0.696-2.207-1.967v-0.024
		c0-1.403,1.067-2.051,2.591-2.051c0.647,0,1.115,0.108,1.571,0.264v-0.107c0-0.756-0.467-1.176-1.379-1.176
		c-0.696,0-1.188,0.132-1.775,0.348l-0.456-1.391c0.708-0.312,1.403-0.516,2.495-0.516c1.991,0,2.866,1.031,2.866,2.771v3.729
		H69.554z M69.59,36.182c-0.312-0.144-0.72-0.239-1.164-0.239c-0.78,0-1.259,0.312-1.259,0.887v0.024
		c0,0.492,0.408,0.779,0.996,0.779c0.852,0,1.427-0.468,1.427-1.127V36.182z"/>
	<path fill="#FFFFFF" d="M75,38.881c-1.115,0-1.871-0.444-1.871-1.932v-3.046h-0.768v-1.56h0.768v-1.643h1.824v1.643h1.511v1.56
		h-1.511v2.746c0,0.42,0.18,0.624,0.587,0.624c0.336,0,0.636-0.084,0.899-0.228v1.463C76.057,38.737,75.612,38.881,75,38.881z"/>
	<path fill="#FFFFFF" d="M80.064,38.893c-0.899,0-1.906-0.3-2.758-0.972l0.779-1.199c0.695,0.504,1.427,0.768,2.026,0.768
		c0.528,0,0.768-0.192,0.768-0.479v-0.024c0-0.396-0.624-0.527-1.331-0.743c-0.899-0.265-1.919-0.684-1.919-1.932v-0.023
		c0-1.308,1.056-2.039,2.351-2.039c0.815,0,1.703,0.275,2.398,0.743l-0.695,1.26c-0.636-0.372-1.271-0.6-1.739-0.6
		c-0.443,0-0.671,0.191-0.671,0.443v0.024c0,0.359,0.611,0.527,1.307,0.768c0.899,0.3,1.943,0.731,1.943,1.907v0.023
		C82.523,38.246,81.455,38.893,80.064,38.893z"/>
</g>
<polygon fill="#FFFFFF" points="71.039,70.46 70.172,69.643 206.911,-33.591 207.612,-32.661 "/>
<polygon fill="#FFFFFF" points="-51.091,190.055 -51.907,189.223 70.594,69.437 71.777,69.901 "/>
<rect x="-1.405" y="-61.667" transform="matrix(-0.5358 0.8443 -0.8443 -0.5358 19.001 37.5501)" fill="#FFFFFF" width="1.166" height="171.331"/>
</svg>
