<?xml version="1.0" encoding="utf-8"?>
<!-- Generator: Adobe Illustrator 16.0.0, SVG Export Plug-In . SVG Version: 6.00 Build 0)  -->
<!DOCTYPE svg PUBLIC "-//W3C//DTD SVG 1.1//EN" "http://www.w3.org/Graphics/SVG/1.1/DTD/svg11.dtd">
<svg version="1.1" id="Layer_1" xmlns="http://www.w3.org/2000/svg" xmlns:xlink="http://www.w3.org/1999/xlink" x="0px" y="0px"
	 width="140px" height="140px" viewBox="0 0 140 140" enable-background="new 0 0 140 140" xml:space="preserve">
<circle fill="#398ABC" cx="70.059" cy="69.942" r="69.5"/>
<path fill="#F06667" d="M69.371,72.518L70.75,72l67.435,11.737c0.897-4.46,1.374-9.071,1.374-13.795
	c0-18.375-7.144-35.073-18.788-47.5L69.371,72.518z"/>
<path fill="#95C83D" d="M69.875,72v67.437c0.062,0,0.122,0.005,0.184,0.005c33.55,0,61.544-23.772,68.064-55.391L69.875,72z"/>
<g enable-background="new    ">
	<path fill="#FFFFFF" d="M31.18,51.253c-0.735-0.569-1.365-0.915-2.28-0.915c-1.56,0-2.43,1.41-2.52,3.33
		c0.555-0.54,1.275-1.05,2.505-1.05c2.04,0,3.675,1.2,3.675,3.314c0,2.115-1.695,3.585-3.9,3.585c-1.29,0-2.22-0.404-2.925-1.095
		c-0.795-0.81-1.275-1.905-1.275-4.035c0-3.225,1.53-5.729,4.5-5.729c1.365,0,2.295,0.436,3.209,1.17L31.18,51.253z M28.57,54.163
		c-1.305,0-2.13,0.84-2.13,1.86c0,1.095,0.855,1.904,2.175,1.904c1.305,0,2.1-0.825,2.1-1.92
		C30.715,54.943,29.875,54.163,28.57,54.163z"/>
	<path fill="#FFFFFF" d="M35.155,48.838h6.27v1.636h-4.68l-0.165,2.46c0.495-0.181,0.96-0.301,1.665-0.301
		c2.055,0,3.645,1.08,3.645,3.315c0,2.16-1.56,3.569-3.885,3.569c-1.604,0-2.865-0.645-3.854-1.604l1.14-1.335
		c0.84,0.78,1.725,1.26,2.7,1.26c1.26,0,2.085-0.72,2.085-1.83c0-1.08-0.87-1.755-2.175-1.755c-0.75,0-1.395,0.21-1.935,0.465
		l-1.11-0.734L35.155,48.838z"/>
</g>
<g enable-background="new    ">
	<path fill="#FFFFFF" d="M46.158,51.281c-0.857,0-1.434-0.708-1.434-1.556c0-0.857,0.585-1.574,1.451-1.574
		c0.857,0,1.434,0.708,1.434,1.557C47.61,50.564,47.024,51.281,46.158,51.281z M46.211,54.342h-0.866l4.477-6.12h0.866
		L46.211,54.342z M46.158,48.825c-0.411,0-0.656,0.393-0.656,0.883c0,0.507,0.28,0.9,0.673,0.9c0.411,0,0.656-0.394,0.656-0.883
		C46.832,49.218,46.552,48.825,46.158,48.825z M49.856,54.412c-0.856,0-1.434-0.709-1.434-1.557c0-0.856,0.586-1.574,1.451-1.574
		c0.857,0,1.434,0.709,1.434,1.557C51.308,53.694,50.722,54.412,49.856,54.412z M49.856,51.955c-0.411,0-0.655,0.394-0.655,0.883
		c0,0.507,0.279,0.9,0.673,0.9c0.411,0,0.656-0.394,0.656-0.883C50.53,52.349,50.25,51.955,49.856,51.955z"/>
</g>
<g enable-background="new    ">
	<path fill="#FFFFFF" d="M24.16,70.879c-2.471,0-4.306-1.906-4.306-4.317v-0.023c0-2.387,1.799-4.342,4.377-4.342
		c1.583,0,2.531,0.527,3.31,1.295l-1.175,1.355c-0.647-0.588-1.307-0.947-2.146-0.947c-1.416,0-2.435,1.175-2.435,2.614v0.024
		c0,1.438,0.996,2.638,2.435,2.638c0.959,0,1.547-0.384,2.207-0.983l1.175,1.188C26.739,70.304,25.779,70.879,24.16,70.879z"/>
	<path fill="#FFFFFF" d="M32.656,70.735V70.04c-0.444,0.491-1.056,0.815-1.943,0.815c-1.211,0-2.207-0.696-2.207-1.967v-0.024
		c0-1.403,1.067-2.051,2.591-2.051c0.647,0,1.115,0.108,1.571,0.264V66.97c0-0.756-0.468-1.176-1.379-1.176
		c-0.696,0-1.188,0.132-1.775,0.348l-0.456-1.391c0.708-0.312,1.403-0.516,2.495-0.516c1.991,0,2.867,1.031,2.867,2.771v3.729
		H32.656z M32.692,68.145c-0.312-0.144-0.72-0.239-1.164-0.239c-0.78,0-1.259,0.312-1.259,0.887v0.024
		c0,0.492,0.408,0.779,0.996,0.779c0.852,0,1.427-0.468,1.427-1.127V68.145z"/>
	<path fill="#FFFFFF" d="M39.772,66.094c-1.211,0-1.955,0.731-1.955,2.267v2.375h-1.823v-6.429h1.823v1.296
		c0.372-0.888,0.971-1.464,2.051-1.416v1.907H39.772z"/>
	<path fill="#FFFFFF" d="M44.836,70.855c-0.972,0-1.571-0.444-2.003-0.96v0.84H41.01V61.98h1.823v3.25
		c0.444-0.6,1.055-1.044,2.003-1.044c1.499,0,2.926,1.176,2.926,3.322v0.024C47.762,69.68,46.359,70.855,44.836,70.855z
		 M45.939,67.509c0-1.067-0.719-1.774-1.571-1.774s-1.559,0.707-1.559,1.774v0.024c0,1.067,0.708,1.775,1.559,1.775
		s1.571-0.696,1.571-1.775V67.509z"/>
	<path fill="#FFFFFF" d="M51.365,70.855c-0.899,0-1.907-0.3-2.758-0.972l0.779-1.199c0.696,0.504,1.427,0.768,2.027,0.768
		c0.528,0,0.768-0.192,0.768-0.479v-0.024c0-0.396-0.624-0.527-1.331-0.743c-0.899-0.265-1.919-0.684-1.919-1.932V66.25
		c0-1.308,1.055-2.039,2.351-2.039c0.815,0,1.703,0.275,2.399,0.743l-0.696,1.26c-0.636-0.372-1.271-0.6-1.739-0.6
		c-0.443,0-0.671,0.191-0.671,0.443v0.024c0,0.359,0.612,0.527,1.307,0.768c0.899,0.3,1.943,0.731,1.943,1.907v0.023
		C53.823,70.208,52.756,70.855,51.365,70.855z"/>
</g>
<g enable-background="new    ">
	<path fill="#FFFFFF" d="M85.42,89.568l-1.306-1.02c1.005-1.41,1.995-2.205,3.87-2.205c2.1,0,3.465,1.274,3.465,3.149
		c0,1.665-0.87,2.565-2.73,4.08l-2.159,1.8h4.995v1.62h-7.59v-1.455l3.614-3.075c1.44-1.215,1.966-1.89,1.966-2.834
		c0-1.035-0.736-1.636-1.695-1.636C86.889,87.993,86.229,88.519,85.42,89.568z"/>
	<path fill="#FFFFFF" d="M97.839,97.173c-2.76,0-4.56-2.399-4.56-5.414c0-3.016,1.83-5.445,4.59-5.445s4.56,2.4,4.56,5.415
		S100.6,97.173,97.839,97.173z M97.839,87.979c-1.635,0-2.655,1.65-2.655,3.75s1.051,3.779,2.686,3.779s2.654-1.664,2.654-3.749
		S99.475,87.979,97.839,87.979z"/>
</g>
<g enable-background="new    ">
	<path fill="#FFFFFF" d="M105.213,89.938c-0.857,0-1.434-0.708-1.434-1.556c0-0.857,0.586-1.574,1.451-1.574
		c0.857,0,1.434,0.708,1.434,1.557C106.664,89.222,106.078,89.938,105.213,89.938z M105.266,92.999H104.4l4.477-6.12h0.865
		L105.266,92.999z M105.213,87.482c-0.41,0-0.656,0.393-0.656,0.883c0,0.507,0.28,0.9,0.674,0.9c0.411,0,0.656-0.394,0.656-0.883
		C105.887,87.875,105.606,87.482,105.213,87.482z M108.911,93.069c-0.856,0-1.434-0.709-1.434-1.557
		c0-0.856,0.586-1.574,1.451-1.574c0.856,0,1.435,0.709,1.435,1.557C110.363,92.352,109.777,93.069,108.911,93.069z M108.911,90.612
		c-0.411,0-0.655,0.394-0.655,0.883c0,0.507,0.279,0.9,0.673,0.9c0.411,0,0.655-0.394,0.655-0.883
		C109.584,91.006,109.305,90.612,108.911,90.612z"/>
</g>
<g enable-background="new    ">
	<path fill="#FFFFFF" d="M79.317,105.872h-1.403v2.519h-1.848v-8.396h3.431c2.003,0,3.214,1.188,3.214,2.902v0.024
		C82.711,104.864,81.2,105.872,79.317,105.872z M80.84,102.934c0-0.827-0.575-1.271-1.498-1.271h-1.428v2.566h1.463
		c0.924,0,1.463-0.552,1.463-1.271V102.934z"/>
	<path fill="#FFFFFF" d="M87.669,103.749c-1.211,0-1.954,0.731-1.954,2.267v2.375h-1.824v-6.429h1.824v1.296
		c0.371-0.888,0.971-1.464,2.051-1.416v1.907H87.669z"/>
	<path fill="#FFFFFF" d="M91.88,108.534c-1.991,0-3.466-1.475-3.466-3.322v-0.023c0-1.847,1.486-3.347,3.49-3.347
		c1.99,0,3.466,1.476,3.466,3.322v0.024C95.37,107.035,93.883,108.534,91.88,108.534z M93.571,105.188
		c0-0.947-0.685-1.775-1.691-1.775c-1.044,0-1.667,0.804-1.667,1.751v0.024c0,0.947,0.684,1.775,1.691,1.775
		c1.043,0,1.667-0.804,1.667-1.752V105.188z"/>
	<path fill="#FFFFFF" d="M98.864,108.499c-1.115,0-1.871-0.444-1.871-1.932v-3.046h-0.768v-1.56h0.768v-1.643h1.823v1.643h1.512
		v1.56h-1.512v2.746c0,0.42,0.18,0.624,0.588,0.624c0.336,0,0.635-0.084,0.899-0.228v1.463
		C99.92,108.354,99.477,108.499,98.864,108.499z"/>
	<path fill="#FFFFFF" d="M107.464,105.812h-4.474c0.18,0.827,0.756,1.259,1.571,1.259c0.612,0,1.056-0.191,1.56-0.659l1.043,0.923
		c-0.6,0.744-1.463,1.199-2.627,1.199c-1.93,0-3.357-1.354-3.357-3.322v-0.023c0-1.835,1.307-3.347,3.178-3.347
		c2.146,0,3.131,1.668,3.131,3.49v0.024C107.488,105.536,107.477,105.645,107.464,105.812z M104.357,103.306
		c-0.756,0-1.247,0.539-1.391,1.367h2.746C105.605,103.857,105.125,103.306,104.357,103.306z"/>
	<path fill="#FFFFFF" d="M108.883,101.255v-1.619h1.92v1.619H108.883z M108.932,108.391v-6.429h1.822v6.429H108.932z"/>
	<path fill="#FFFFFF" d="M116.537,108.391v-3.586c0-0.863-0.408-1.308-1.104-1.308s-1.139,0.444-1.139,1.308v3.586h-1.824v-6.429
		h1.824v0.912c0.419-0.54,0.959-1.032,1.883-1.032c1.379,0,2.182,0.912,2.182,2.387v4.162H116.537z"/>
</g>
<g enable-background="new    ">
	<path fill="#FFFFFF" d="M106.475,47.68h1.29v10.574h-1.83v-8.699l-1.89,0.524l-0.391-1.5L106.475,47.68z"/>
	<path fill="#FFFFFF" d="M110.914,47.754h6.27v1.636h-4.68l-0.164,2.46c0.494-0.181,0.959-0.301,1.664-0.301
		c2.055,0,3.646,1.08,3.646,3.315c0,2.16-1.56,3.569-3.885,3.569c-1.604,0-2.865-0.645-3.854-1.604l1.139-1.335
		c0.841,0.78,1.726,1.26,2.701,1.26c1.26,0,2.084-0.72,2.084-1.83c0-1.08-0.869-1.755-2.175-1.755c-0.749,0-1.395,0.21-1.935,0.465
		l-1.109-0.734L110.914,47.754z"/>
</g>
<g enable-background="new    ">
	<path fill="#FFFFFF" d="M120.917,50.198c-0.856,0-1.434-0.708-1.434-1.556c0-0.857,0.586-1.574,1.451-1.574
		c0.857,0,1.435,0.708,1.435,1.557C122.369,49.481,121.783,50.198,120.917,50.198z M120.97,53.259h-0.865l4.477-6.12h0.865
		L120.97,53.259z M120.917,47.742c-0.41,0-0.655,0.393-0.655,0.883c0,0.507,0.279,0.9,0.673,0.9c0.411,0,0.656-0.394,0.656-0.883
		C121.591,48.135,121.311,47.742,120.917,47.742z M124.615,53.329c-0.856,0-1.434-0.709-1.434-1.557
		c0-0.856,0.586-1.574,1.451-1.574c0.857,0,1.435,0.709,1.435,1.557C126.067,52.611,125.481,53.329,124.615,53.329z M124.615,50.872
		c-0.41,0-0.655,0.394-0.655,0.883c0,0.507,0.279,0.9,0.673,0.9c0.411,0,0.656-0.394,0.656-0.883
		C125.289,51.266,125.009,50.872,124.615,50.872z"/>
</g>
<g enable-background="new    ">
	<path fill="#FFFFFF" d="M104.312,62.936v1.787h4.006v1.68h-4.006v3.25h-1.848v-8.396h6.393v1.679H104.312z"/>
	<path fill="#FFFFFF" d="M113.609,69.652v-0.695c-0.443,0.491-1.055,0.815-1.942,0.815c-1.212,0-2.207-0.696-2.207-1.967v-0.024
		c0-1.403,1.067-2.051,2.591-2.051c0.647,0,1.115,0.108,1.57,0.264v-0.107c0-0.756-0.467-1.176-1.379-1.176
		c-0.695,0-1.188,0.132-1.774,0.348l-0.456-1.391c0.707-0.312,1.403-0.516,2.494-0.516c1.991,0,2.867,1.031,2.867,2.771v3.729
		H113.609z M113.646,67.062c-0.312-0.144-0.721-0.239-1.164-0.239c-0.779,0-1.26,0.312-1.26,0.887v0.024
		c0,0.492,0.408,0.779,0.996,0.779c0.852,0,1.428-0.468,1.428-1.127V67.062z"/>
	<path fill="#FFFFFF" d="M119.057,69.761c-1.115,0-1.871-0.444-1.871-1.932v-3.046h-0.768v-1.56h0.768v-1.643h1.823v1.643h1.511
		v1.56h-1.511v2.746c0,0.42,0.18,0.624,0.587,0.624c0.336,0,0.637-0.084,0.9-0.228v1.463
		C120.112,69.616,119.668,69.761,119.057,69.761z"/>
	<path fill="#FFFFFF" d="M124.121,69.772c-0.9,0-1.907-0.3-2.759-0.972l0.779-1.199c0.696,0.504,1.427,0.768,2.026,0.768
		c0.528,0,0.768-0.192,0.768-0.479v-0.024c0-0.396-0.623-0.527-1.33-0.743c-0.9-0.265-1.92-0.684-1.92-1.932v-0.023
		c0-1.308,1.056-2.039,2.352-2.039c0.814,0,1.703,0.275,2.398,0.743l-0.695,1.26c-0.637-0.372-1.271-0.6-1.74-0.6
		c-0.443,0-0.671,0.191-0.671,0.443v0.024c0,0.359,0.612,0.527,1.308,0.768c0.898,0.3,1.942,0.731,1.942,1.907v0.023
		C126.579,69.125,125.512,69.772,124.121,69.772z"/>
</g>
<polygon fill="#FFFFFF" points="69.332,71.988 70.486,71.87 70.368,242.161 69.202,242.158 "/>
<polygon fill="#FFFFFF" points="192.295,-47.212 193.107,-46.374 69.352,72.936 69.322,71.302 "/>
<polygon fill="#FFFFFF" points="238.425,100.376 238.232,101.528 69.371,72.518 69.61,71.365 "/>
</svg>
