<?xml version="1.0" encoding="utf-8"?>
<!-- Generator: Adobe Illustrator 16.0.0, SVG Export Plug-In . SVG Version: 6.00 Build 0)  -->
<!DOCTYPE svg PUBLIC "-//W3C//DTD SVG 1.1//EN" "http://www.w3.org/Graphics/SVG/1.1/DTD/svg11.dtd">
<svg version="1.1" id="Layer_1" xmlns="http://www.w3.org/2000/svg" xmlns:xlink="http://www.w3.org/1999/xlink" x="0px" y="0px"
	 width="52px" height="60px" viewBox="0 0 52 60" enable-background="new 0 0 52 60" xml:space="preserve">
<path fill="#67B845" d="M9.503,21.499c0,0-0.75,1.902-1.393,4.7c-0.639,2.786-0.29,4.757-0.231,4.988
	c0.057,0.232,4.08,2.553,8.469,3.122c4.352,0.562,4.892,0.167,4.892,0.167s-0.239,5.292,2.236,8.876
	c1.876,2.716,3.516,3.907,6.486,5.45c2.792,1.451,3.785,1.211,3.785,1.211s0.646-0.115,0.531-0.407
	c-0.119-0.295-0.433-0.334-1.348-1.544c-1.094-1.438-1.731-3.237-1.731-3.237s-0.581-1.938-0.464-2.407
	c0.114-0.47,0.316-0.897,1.373-1.66c1.053-0.764,2.139-0.665,2.346-0.588c0.26,0.098,0.352,0.178,0.289,0.473
	c-0.059,0.29-1.126,4.106,0.575,6.098c0.81,0.952,2.445,1.432,2.38,1.686c-0.16,0.576-0.523,1.382-1.726,2.824
	c-1.748,2.099-1.464,2.319-1.464,2.319s0.064,0.043,0.164,0.021c0.354-0.073,1.831-0.334,3.938-2.638
	c2.436-2.665,2.447-5.128,2.215-6.479c-0.233-1.345-1.613-5.027-5.878-5.577c-2.864-0.368-4.234-2.581-4.367-5.699
	c-0.06-1.439,0.07-1.514-0.165-1.628c-0.234-0.116-1.237,1.195-2.358,1.774c-1.129,0.583-1.755,0.85-3.57,0.85
	s-2.638-1.059-2.638-1.059s-0.693-3.323-2.04-4.962c-1.347-1.643-2.179-2.303-3.82-2.126c-1.641,0.175-3.465,1.347-3.921,1.701
	c-0.396,0.305-0.695,0.569-0.878,0.725c-0.162,0.134-0.957-1.598-0.58-4.46c0.308-2.32,0.348-2.205,0.348-2.205"/>
<path fill="#67B845" d="M41.014,26.417c0,0,5.424-4.949,6.247-5.469c0.826-0.521,2.882-2.009,2.882-2.009s-0.407-0.014-0.536-0.881
	c-0.132-0.871,0.358-1.094-0.861-1.486c-1.217-0.391-1.688-1.543-2.032-1.586c-0.351-0.042-0.651-0.086-0.651-0.086
	s0.349-1.042,0.305-1.39c-0.041-0.348-0.692-1.782-1.26-1.782c-0.565,0-2.213-0.346-2.782,0.174
	c-0.564,0.521-0.307,0.348-0.521-0.869c-0.221-1.215-0.998-2.518-2.042-1.562c-1.041,0.958-1.086,1.087-1.171,1.478
	c-0.087,0.39,0-1.259-0.219-2.084c-0.221-0.827-0.128-1.738-1.172-1.391c-1.043,0.347-1.499,0.556-3.063,3.164
	c-1.562,2.608-4.188,7.218-4.799,8.607c-0.604,1.392,10.856,7.82,11.032,7.689C40.544,26.801,41.014,26.417,41.014,26.417z"/>
<path fill="#67B845" d="M29.259,20.238c0.438,1.623,9.708,6.856,10.504,7.122c-1.646,2.262-3.274,3.926-5.944,3.926
	c-3.567,0-6.463-2.896-6.463-6.467C27.355,23.03,28.195,22.225,29.259,20.238z"/>
<path fill="#67B845" d="M44.136,17.859c0,1.835,1.486,3.322,3.321,3.322c1.833,0,3.319-1.485,3.319-3.322
	c0-1.833-2.007-4.377-3.842-4.377C45.106,13.482,44.136,16.026,44.136,17.859z"/>
<path fill="#67B845" d="M33.588,9.579c0,1.834,1.486,3.321,3.323,3.321c1.829,0,4.426-1.237,4.426-3.071
	c0-1.835-2.597-3.571-4.426-3.571C35.072,6.257,33.588,7.744,33.588,9.579z"/>
<path fill="#67B845" d="M33.652,13.656c0-2.547,3.02-5.019,6.673-5.019c3.649,0,7.482,3.196,7.482,5.743
	c0,2.548-3.89,3.887-7.54,3.887C36.611,18.268,33.652,16.204,33.652,13.656z"/>
<path fill="#67B845" d="M1,19.095c-0.07,0.311,0.125,0.62,0.438,0.687l17.568,3.896c0.309,0.067,0.619-0.128,0.687-0.44l0,0
	c0.068-0.309-0.125-0.618-0.438-0.687L1.687,18.655C1.378,18.589,1.069,18.785,1,19.095L1,19.095z"/>
<g>
	<path fill="#67B845" d="M3.123,19.038c1.15-2.806,4.723-4.37,8.445-3.545c3.723,0.824,6.299,3.755,6.158,6.785L3.123,19.038z"/>
</g>
<circle fill="#67B845" cx="11.461" cy="15.709" r="1.055"/>
</svg>
