<?xml version="1.0" encoding="utf-8"?>
<!-- Generator: Adobe Illustrator 16.0.0, SVG Export Plug-In . SVG Version: 6.00 Build 0)  -->
<!DOCTYPE svg PUBLIC "-//W3C//DTD SVG 1.1//EN" "http://www.w3.org/Graphics/SVG/1.1/DTD/svg11.dtd">
<svg version="1.1" id="Layer_1" xmlns="http://www.w3.org/2000/svg" xmlns:xlink="http://www.w3.org/1999/xlink" x="0px" y="0px"
	 width="150px" height="60px" viewBox="0 0 150 60" enable-background="new 0 0 150 60" xml:space="preserve">
<g>
	<path fill="#2C693E" d="M14.37,51.458V40.155l-4.873,7.391H9.398l-4.821-7.318v11.23H0.842V34.143h4.104l4.551,7.32l4.552-7.32
		h4.103v17.313H14.37V51.458z"/>
	<path fill="#2C693E" d="M28.435,51.458v-1.436c-0.914,1.011-2.175,1.682-4.005,1.682c-2.498,0-4.55-1.435-4.55-4.06v-0.048
		c0-2.894,2.202-4.227,5.341-4.227c1.334,0,2.301,0.221,3.24,0.545V43.69c0-1.562-0.965-2.425-2.845-2.425
		c-1.434,0-2.448,0.272-3.66,0.719l-0.938-2.871c1.459-0.646,2.895-1.062,5.143-1.062c4.106,0,5.911,2.127,5.911,5.712v7.696h-3.636
		L28.435,51.458L28.435,51.458z M28.512,46.115c-0.645-0.302-1.485-0.493-2.401-0.493c-1.606,0-2.595,0.643-2.595,1.829v0.052
		c0,1.012,0.841,1.604,2.052,1.604c1.755,0,2.944-0.965,2.944-2.327V46.115z"/>
	<path fill="#2C693E" d="M40.327,51.753c-3.981,0-6.898-3.067-6.898-6.852v-0.049c0-3.786,2.893-6.902,6.949-6.902
		c2.499,0,4.059,0.842,5.295,2.227L43.37,42.65c-0.842-0.894-1.682-1.457-3.018-1.457c-1.878,0-3.215,1.657-3.215,3.608v0.053
		c0,2.023,1.312,3.651,3.364,3.651c1.262,0,2.126-0.538,3.041-1.403l2.201,2.227C44.459,50.739,42.973,51.753,40.327,51.753z"/>
	<path fill="#2C693E" d="M54.743,41.888c-2.499,0-4.032,1.505-4.032,4.671v4.897h-3.758V38.197h3.759v2.675
		c0.768-1.831,2.002-3.021,4.229-2.92v3.938L54.743,41.888L54.743,41.888z"/>
	<path fill="#2C693E" d="M62.18,51.753c-4.106,0-7.147-3.045-7.147-6.852v-0.049c0-3.812,3.066-6.902,7.198-6.902
		c4.104,0,7.147,3.042,7.147,6.854v0.051C69.377,48.662,66.31,51.753,62.18,51.753z M65.668,44.854c0-1.959-1.412-3.662-3.487-3.662
		c-2.152,0-3.438,1.657-3.438,3.611v0.051c0,1.954,1.411,3.654,3.488,3.654c2.152,0,3.438-1.653,3.438-3.605L65.668,44.854
		L65.668,44.854z"/>
</g>
<g>
	<path fill="#2C693E" d="M100.616,46.258h-2.895v5.193h-3.811V34.141h7.074c4.129,0,6.624,2.448,6.624,5.983v0.049
		C107.614,44.182,104.496,46.258,100.616,46.258z M103.759,40.201c0-1.708-1.189-2.622-3.091-2.622h-2.944v5.291h3.017
		c1.903,0,3.022-1.137,3.022-2.618L103.759,40.201L103.759,40.201z"/>
	<path fill="#2C693E" d="M108.969,51.454V33.398h3.758v18.056H108.969L108.969,51.454z"/>
	<path fill="#2C693E" d="M122.79,51.454v-1.434c-0.913,1.011-2.178,1.681-4.004,1.681c-2.498,0-4.551-1.436-4.551-4.06v-0.049
		c0-2.892,2.199-4.229,5.34-4.229c1.334,0,2.302,0.226,3.237,0.544v-0.22c0-1.562-0.96-2.425-2.843-2.425
		c-1.432,0-2.445,0.271-3.658,0.715l-0.938-2.868c1.459-0.646,2.896-1.062,5.145-1.062c4.105,0,5.91,2.129,5.91,5.714v7.692H122.79
		L122.79,51.454z M122.866,46.111c-0.646-0.298-1.484-0.491-2.397-0.491c-1.608,0-2.597,0.643-2.597,1.829v0.048
		c0,1.012,0.839,1.607,2.052,1.607c1.755,0,2.94-0.964,2.94-2.326v-0.667H122.866z"/>
	<path fill="#2C693E" d="M132.774,51.677c-2.301,0-3.855-0.918-3.855-3.983v-6.28h-1.582v-3.218h1.582v-3.385h3.761v3.385h3.116
		v3.218h-3.116v5.662c0,0.865,0.368,1.285,1.211,1.285c0.691,0,1.312-0.172,1.854-0.472v3.02
		C134.95,51.38,134.039,51.677,132.774,51.677z"/>
	<path fill="#2C693E" d="M149.265,46.137h-9.226c0.371,1.704,1.559,2.596,3.239,2.596c1.261,0,2.178-0.396,3.215-1.36l2.148,1.903
		c-1.233,1.534-3.02,2.474-5.416,2.474c-3.979,0-6.921-2.793-6.921-6.854V44.85c0-3.783,2.695-6.901,6.554-6.901
		c4.431,0,6.453,3.44,6.453,7.195v0.049C149.313,45.566,149.293,45.79,149.265,46.137z M142.858,40.966
		c-1.557,0-2.565,1.115-2.869,2.82h5.668C145.433,42.105,144.442,40.966,142.858,40.966z"/>
</g>
</svg>
