<?xml version="1.0" encoding="utf-8"?>
<!-- Generator: Adobe Illustrator 16.0.0, SVG Export Plug-In . SVG Version: 6.00 Build 0)  -->
<!DOCTYPE svg PUBLIC "-//W3C//DTD SVG 1.1//EN" "http://www.w3.org/Graphics/SVG/1.1/DTD/svg11.dtd">
<svg version="1.1" id="Layer_1" xmlns="http://www.w3.org/2000/svg" xmlns:xlink="http://www.w3.org/1999/xlink" x="0px" y="0px"
	 width="150px" height="70px" viewBox="0 0 150 70" enable-background="new 0 0 150 70" xml:space="preserve">
<path fill="#66B83D" d="M58.66,26.768c0,0-0.75,1.902-1.393,4.7c-0.638,2.786-0.289,4.757-0.231,4.988
	c0.057,0.231,4.079,2.553,8.469,3.121c4.352,0.562,4.892,0.167,4.892,0.167s-0.239,5.293,2.236,8.876
	c1.876,2.716,3.516,3.907,6.486,5.45c2.791,1.451,3.786,1.211,3.786,1.211s0.646-0.114,0.53-0.407
	c-0.119-0.295-0.432-0.334-1.348-1.544c-1.093-1.438-1.732-3.237-1.732-3.237s-0.58-1.938-0.463-2.407
	c0.115-0.47,0.316-0.898,1.373-1.66c1.053-0.764,2.14-0.664,2.346-0.588c0.26,0.098,0.351,0.177,0.289,0.473
	c-0.058,0.289-1.127,4.107,0.574,6.097c0.811,0.952,2.446,1.431,2.381,1.685c-0.16,0.576-0.523,1.382-1.725,2.824
	c-1.748,2.099-1.464,2.32-1.464,2.32s0.065,0.043,0.163,0.021c0.355-0.074,1.832-0.334,3.939-2.638
	c2.436-2.665,2.448-5.128,2.215-6.479c-0.233-1.345-1.613-5.027-5.877-5.576c-2.866-0.369-4.235-2.581-4.368-5.7
	c-0.06-1.439,0.071-1.513-0.165-1.628c-0.235-0.116-1.237,1.195-2.358,1.774c-1.129,0.584-1.755,0.85-3.57,0.85
	s-2.638-1.059-2.638-1.059s-0.693-3.322-2.04-4.961c-1.347-1.642-2.179-2.303-3.82-2.126c-1.641,0.175-3.465,1.347-3.921,1.701
	c-0.395,0.305-0.695,0.569-0.878,0.725c-0.162,0.134-0.957-1.597-0.58-4.46c0.308-2.32,0.348-2.204,0.348-2.204"/>
<path fill="#66B83D" d="M90.169,31.686c0,0,5.425-4.948,6.248-5.468c0.825-0.521,2.881-2.01,2.881-2.01s-0.407-0.014-0.537-0.881
	c-0.131-0.87,0.359-1.094-0.86-1.485c-1.217-0.392-1.688-1.543-2.033-1.587c-0.35-0.042-0.65-0.086-0.65-0.086
	s0.348-1.042,0.303-1.39c-0.041-0.348-0.692-1.782-1.259-1.782c-0.565,0-2.213-0.346-2.782,0.174
	c-0.564,0.521-0.307,0.348-0.521-0.869c-0.22-1.215-0.999-2.518-2.042-1.562c-1.041,0.957-1.086,1.087-1.172,1.478
	c-0.086,0.39,0-1.259-0.217-2.084c-0.221-0.827-0.129-1.738-1.172-1.391c-1.043,0.347-1.5,0.556-3.065,3.164
	c-1.562,2.608-4.188,7.218-4.799,8.607c-0.604,1.391,10.858,7.82,11.034,7.689C89.7,32.07,90.169,31.686,90.169,31.686z"/>
<path fill="#66B83D" d="M78.415,25.507c0.438,1.623,9.707,6.856,10.504,7.122c-1.647,2.262-3.274,3.926-5.944,3.926
	c-3.568,0-6.464-2.896-6.464-6.466C76.511,28.299,77.352,27.494,78.415,25.507z"/>
<path fill="#66B83D" d="M93.291,23.129c0,1.835,1.486,3.321,3.322,3.321c1.832,0,3.318-1.485,3.318-3.321
	c0-1.834-2.006-4.377-3.84-4.377C94.262,18.752,93.291,21.295,93.291,23.129z"/>
<path fill="#66B83D" d="M82.744,14.848c0,1.834,1.486,3.321,3.322,3.321c1.83,0,4.426-1.237,4.426-3.072
	c0-1.835-2.596-3.57-4.426-3.57C84.229,11.527,82.744,13.013,82.744,14.848z"/>
<path fill="#66B83D" d="M82.809,18.926c0-2.548,3.019-5.019,6.672-5.019c3.65,0,7.483,3.196,7.483,5.743
	c0,2.548-3.891,3.887-7.54,3.887C85.768,23.537,82.809,21.473,82.809,18.926z"/>
<path fill="#66B83D" d="M50.157,24.364c-0.07,0.312,0.125,0.62,0.438,0.687l17.568,3.896c0.309,0.067,0.619-0.128,0.687-0.44l0,0
	c0.068-0.309-0.125-0.618-0.438-0.687l-17.568-3.896C50.535,23.858,50.226,24.054,50.157,24.364L50.157,24.364z"/>
<g>
	<path fill="#66B83D" d="M52.279,24.307c1.15-2.805,4.723-4.369,8.445-3.545c3.723,0.825,6.299,3.756,6.158,6.785L52.279,24.307z"/>
</g>
<circle fill="#66B83D" cx="60.617" cy="20.978" r="1.055"/>
<g>
	<path fill="#2A683D" d="M13.527,55.727V44.424l-4.872,7.391h-0.1l-4.821-7.318v11.229H0V38.411h4.104l4.551,7.321l4.551-7.321
		h4.103v17.313h-3.782V55.727z"/>
	<path fill="#2A683D" d="M27.592,55.727v-1.436c-0.914,1.011-2.175,1.682-4.005,1.682c-2.498,0-4.55-1.435-4.55-4.059v-0.049
		c0-2.893,2.202-4.227,5.341-4.227c1.334,0,2.301,0.221,3.24,0.545v-0.223c0-1.561-0.965-2.425-2.845-2.425
		c-1.434,0-2.448,0.272-3.66,0.719l-0.938-2.872c1.459-0.646,2.895-1.062,5.143-1.062c4.106,0,5.911,2.127,5.911,5.712v7.696h-3.636
		L27.592,55.727L27.592,55.727z M27.669,50.384c-0.644-0.302-1.485-0.493-2.401-0.493c-1.606,0-2.595,0.643-2.595,1.829v0.052
		c0,1.011,0.841,1.604,2.052,1.604c1.755,0,2.944-0.964,2.944-2.326V50.384z"/>
	<path fill="#2A683D" d="M39.484,56.021c-3.981,0-6.898-3.067-6.898-6.85v-0.05c0-3.786,2.892-6.902,6.948-6.902
		c2.499,0,4.059,0.841,5.295,2.226l-2.302,2.475c-0.842-0.895-1.682-1.458-3.018-1.458c-1.878,0-3.215,1.657-3.215,3.608v0.053
		c0,2.023,1.312,3.652,3.364,3.652c1.262,0,2.126-0.539,3.04-1.404l2.201,2.227C43.616,55.008,42.13,56.021,39.484,56.021z"/>
	<path fill="#2A683D" d="M53.899,46.156c-2.498,0-4.032,1.505-4.032,4.671v4.897H46.11V42.467h3.758v2.674
		c0.768-1.83,2.003-3.02,4.23-2.92v3.937L53.899,46.156L53.899,46.156z"/>
	<path fill="#2A683D" d="M61.337,56.021c-4.106,0-7.147-3.045-7.147-6.85v-0.05c0-3.812,3.066-6.902,7.197-6.902
		c4.104,0,7.147,3.042,7.147,6.853v0.051C68.533,52.932,65.467,56.021,61.337,56.021z M64.824,49.123
		c0-1.959-1.411-3.662-3.486-3.662c-2.152,0-3.438,1.657-3.438,3.611v0.051c0,1.954,1.41,3.654,3.487,3.654
		c2.152,0,3.438-1.653,3.438-3.604L64.824,49.123L64.824,49.123z"/>
</g>
<g>
	<path fill="#2A683D" d="M99.771,50.527h-2.894v5.193h-3.81V38.409h7.074c4.129,0,6.625,2.448,6.625,5.983v0.049
		C106.77,48.451,103.652,50.527,99.771,50.527z M102.914,44.47c0-1.708-1.189-2.622-3.091-2.622h-2.944v5.291h3.018
		c1.902,0,3.021-1.137,3.021-2.617L102.914,44.47L102.914,44.47z"/>
	<path fill="#2A683D" d="M108.125,55.723V37.668h3.757v18.055H108.125L108.125,55.723z"/>
	<path fill="#2A683D" d="M121.945,55.723v-1.434c-0.913,1.011-2.178,1.681-4.004,1.681c-2.498,0-4.551-1.436-4.551-4.059v-0.05
		c0-2.891,2.2-4.229,5.34-4.229c1.334,0,2.302,0.225,3.238,0.544v-0.219c0-1.562-0.961-2.425-2.843-2.425
		c-1.431,0-2.446,0.271-3.658,0.715l-0.938-2.869c1.459-0.645,2.896-1.062,5.145-1.062c4.105,0,5.91,2.129,5.91,5.714v7.692H121.945
		L121.945,55.723z M122.021,50.38c-0.645-0.298-1.484-0.491-2.397-0.491c-1.608,0-2.597,0.643-2.597,1.829v0.048
		c0,1.012,0.839,1.607,2.052,1.607c1.754,0,2.94-0.963,2.94-2.325V50.38H122.021z"/>
	<path fill="#2A683D" d="M131.93,55.945c-2.301,0-3.856-0.918-3.856-3.983v-6.28h-1.583v-3.217h1.583v-3.386h3.76v3.386h3.116v3.217
		h-3.116v5.662c0,0.865,0.369,1.285,1.211,1.285c0.692,0,1.312-0.172,1.854-0.472v3.02C134.105,55.648,133.193,55.945,131.93,55.945
		z"/>
	<path fill="#2A683D" d="M148.42,50.405h-9.227c0.371,1.704,1.559,2.596,3.24,2.596c1.26,0,2.178-0.396,3.215-1.36l2.148,1.903
		c-1.234,1.534-3.018,2.474-5.415,2.474c-3.979,0-6.922-2.793-6.922-6.853v-0.047c0-3.783,2.695-6.901,6.554-6.901
		c4.43,0,6.453,3.44,6.453,7.195v0.049C148.468,49.836,148.447,50.059,148.42,50.405z M142.014,45.234
		c-1.558,0-2.566,1.115-2.869,2.82h5.668C144.587,46.374,143.598,45.234,142.014,45.234z"/>
</g>
</svg>
