<?xml version="1.0" encoding="utf-8"?>
<!-- Generator: Adobe Illustrator 16.0.0, SVG Export Plug-In . SVG Version: 6.00 Build 0)  -->
<!DOCTYPE svg PUBLIC "-//W3C//DTD SVG 1.1//EN" "http://www.w3.org/Graphics/SVG/1.1/DTD/svg11.dtd">
<svg version="1.1" id="Layer_1" xmlns="http://www.w3.org/2000/svg" xmlns:xlink="http://www.w3.org/1999/xlink" x="0px" y="0px"
	 width="55px" height="70px" viewBox="0 0 55 70" enable-background="new 0 0 55 70" xml:space="preserve">
<path fill="#BCBCBC" d="M10.807,27.032c0,0-0.763,1.935-1.417,4.781c-0.649,2.834-0.294,4.84-0.235,5.075
	c0.058,0.235,4.15,2.597,8.615,3.175c4.428,0.571,4.977,0.17,4.977,0.17s-0.243,5.385,2.275,9.03
	c1.908,2.763,3.577,3.975,6.598,5.544c2.84,1.477,3.852,1.232,3.852,1.232s0.657-0.116,0.54-0.414
	c-0.121-0.301-0.44-0.34-1.372-1.571c-1.111-1.462-1.762-3.293-1.762-3.293s-0.59-1.973-0.471-2.449
	c0.116-0.478,0.321-0.913,1.397-1.688c1.07-0.777,2.176-0.676,2.386-0.599c0.265,0.101,0.356,0.181,0.294,0.481
	c-0.06,0.295-1.146,4.178,0.585,6.203c0.824,0.969,2.487,1.456,2.422,1.715c-0.163,0.586-0.532,1.405-1.756,2.873
	c-1.778,2.135-1.489,2.359-1.489,2.359s0.065,0.044,0.166,0.021c0.36-0.074,1.864-0.34,4.007-2.682
	c2.479-2.713,2.49-5.219,2.253-6.593c-0.236-1.367-1.64-5.114-5.979-5.673c-2.915-0.375-4.308-2.625-4.443-5.799
	c-0.062-1.464,0.072-1.539-0.167-1.656c-0.24-0.118-1.259,1.217-2.399,1.806c-1.148,0.594-1.786,0.864-3.632,0.864
	c-1.847,0-2.684-1.077-2.684-1.077s-0.705-3.38-2.076-5.047c-1.37-1.67-2.216-2.343-3.886-2.163
	c-1.669,0.178-3.525,1.371-3.989,1.73c-0.402,0.31-0.707,0.579-0.894,0.738c-0.165,0.136-0.974-1.625-0.59-4.538
	c0.313-2.36,0.354-2.242,0.354-2.242"/>
<path fill="#BCBCBC" d="M42.862,32.036c0,0,5.519-5.034,6.356-5.563c0.839-0.53,2.931-2.045,2.931-2.045s-0.414-0.014-0.547-0.896
	c-0.133-0.885,0.366-1.113-0.875-1.511c-1.238-0.398-1.717-1.57-2.067-1.614c-0.356-0.043-0.662-0.087-0.662-0.087
	s0.354-1.06,0.31-1.414c-0.042-0.354-0.705-1.813-1.282-1.813c-0.574,0-2.251-0.352-2.829,0.177c-0.574,0.53-0.313,0.354-0.53-0.884
	c-0.225-1.236-1.017-2.562-2.078-1.589c-1.059,0.973-1.104,1.106-1.191,1.503c-0.088,0.396,0-1.281-0.222-2.12
	c-0.225-0.841-0.132-1.768-1.192-1.415c-1.062,0.353-1.526,0.565-3.117,3.219c-1.59,2.653-4.261,7.343-4.883,8.756
	c-0.613,1.415,11.046,7.956,11.225,7.822C42.385,32.426,42.862,32.036,42.862,32.036z"/>
<path fill="#BCBCBC" d="M30.904,25.749c0.446,1.651,9.875,6.975,10.686,7.246c-1.676,2.302-3.331,3.994-6.047,3.994
	c-3.629,0-6.575-2.945-6.575-6.578C28.968,28.59,29.822,27.771,30.904,25.749z"/>
<path fill="#BCBCBC" d="M46.038,23.33c0,1.867,1.512,3.379,3.38,3.379c1.864,0,3.376-1.511,3.376-3.379
	c0-1.866-2.042-4.453-3.907-4.453C47.025,18.877,46.038,21.464,46.038,23.33z"/>
<path fill="#BCBCBC" d="M35.309,14.906c0,1.866,1.512,3.378,3.38,3.378c1.861,0,4.502-1.258,4.502-3.125s-2.641-3.632-4.502-3.632
	C36.818,11.527,35.309,13.039,35.309,14.906z"/>
<path fill="#BCBCBC" d="M35.374,19.054c0-2.592,3.072-5.105,6.787-5.105c3.714,0,7.613,3.251,7.613,5.842
	c0,2.593-3.958,3.955-7.671,3.955C38.385,23.745,35.374,21.646,35.374,19.054z"/>
<path fill="#BCBCBC" d="M2.156,24.587c-0.071,0.317,0.127,0.63,0.446,0.698l17.873,3.964c0.314,0.068,0.63-0.13,0.699-0.448l0,0
	c0.069-0.314-0.127-0.628-0.445-0.699L2.855,24.139C2.541,24.072,2.227,24.271,2.156,24.587L2.156,24.587z"/>
<g>
	<path fill="#BCBCBC" d="M4.315,24.529c1.17-2.854,4.805-4.445,8.592-3.606c3.787,0.839,6.408,3.821,6.264,6.902L4.315,24.529z"/>
</g>
<circle fill="#BCBCBC" cx="12.798" cy="21.142" r="1.073"/>
</svg>
