<?xml version="1.0" encoding="utf-8"?>
<!-- Generator: Adobe Illustrator 16.0.0, SVG Export Plug-In . SVG Version: 6.00 Build 0)  -->
<!DOCTYPE svg PUBLIC "-//W3C//DTD SVG 1.1//EN" "http://www.w3.org/Graphics/SVG/1.1/DTD/svg11.dtd">
<svg version="1.1" id="Layer_1" xmlns="http://www.w3.org/2000/svg" xmlns:xlink="http://www.w3.org/1999/xlink" x="0px" y="0px"
	 width="230px" height="70px" viewBox="0 0 230 70" enable-background="new 0 0 230 70" xml:space="preserve">
<path id="path5" fill="#FFFFFF" d="M108.393,29.472c3.489,0,6.365-2.876,6.365-6.366c0-3.491-2.874-6.366-6.365-6.366
	c-3.493,0-6.367,2.875-6.367,6.366C102.025,26.596,104.899,29.472,108.393,29.472 M108.393,9.139c7.7,0,13.964,6.264,13.964,13.966
	c0,7.701-6.264,13.964-13.964,13.964c-7.703,0-13.968-6.263-13.968-13.964C94.425,15.403,100.689,9.139,108.393,9.139z"/>
<path id="path7" fill="#FFFFFF" d="M165.984,0h7.601v36.455h-7.601V0z M154.749,0h7.599v7.291h-7.599V0z M154.749,9.755h7.599v26.7
	h-7.599V9.755z M138.524,16.43c-3.644,0-6.572,3.029-6.572,6.676c0,3.646,2.927,6.675,6.572,6.675c3.646,0,6.573-3.029,6.573-6.675
	C145.098,19.459,142.169,16.43,138.524,16.43L138.524,16.43z M124.352,36.455V0h7.599v11.297c2.21-1.387,4.673-2.158,7.291-2.158
	c7.651,0,13.453,6.417,13.453,13.966c0,7.548-5.802,13.964-13.453,13.964c-4.312,0-6.366-2.002-7.291-3.027v2.413H124.352z M55.46,0
	h11.81l6.674,22.899h0.104L80.875,0h11.45v36.455h-7.598V10.167h-0.104l-7.342,26.289H70.35l-7.188-26.289h-0.103v26.289h-7.598
	L55.46,0L55.46,0z"/>
<g>
	<path fill="#FFFFFF" d="M175.836,2.026c0-1.117,0.912-2.026,2.04-2.026c1.121,0,2.022,0.909,2.022,2.026
		c0,1.126-0.901,2.035-2.022,2.035C176.748,4.061,175.836,3.152,175.836,2.026 M179.657,2.026c0-0.985-0.798-1.781-1.781-1.781
		c-0.988,0-1.787,0.797-1.787,1.781c0,0.993,0.799,1.79,1.787,1.79C178.859,3.815,179.657,3.019,179.657,2.026 M178.884,3.162
		h-0.329l-0.647-1.046h-0.509v1.046h-0.277v-2.27h0.986c0.191,0,0.383,0.011,0.555,0.113c0.17,0.095,0.254,0.299,0.254,0.49
		c0,0.445-0.312,0.611-0.717,0.621L178.884,3.162 M177.821,1.896c0.32,0,0.815,0.054,0.815-0.408c0-0.352-0.312-0.396-0.591-0.396
		h-0.647v0.804H177.821L177.821,1.896z"/>
</g>
</svg>
