<?xml version="1.0" encoding="utf-8"?>
<!-- Generator: Adobe Illustrator 16.0.0, SVG Export Plug-In . SVG Version: 6.00 Build 0)  -->
<!DOCTYPE svg PUBLIC "-//W3C//DTD SVG 1.1//EN" "http://www.w3.org/Graphics/SVG/1.1/DTD/svg11.dtd">
<svg version="1.1" id="Layer_1" xmlns="http://www.w3.org/2000/svg" xmlns:xlink="http://www.w3.org/1999/xlink" x="0px" y="0px"
	 width="200px" height="140px" viewBox="0 0 200 140" enable-background="new 0 0 200 140" xml:space="preserve">
<path fill="none" stroke="#6CA542" stroke-width="9" stroke-miterlimit="10" d="M177.716,109.314c0,5.521-4.478,10-10,10H32.031
	c-5.523,0-10-4.479-10-10V30.278c0-5.523,4.477-10,10-10h135.685c5.522,0,10,4.477,10,10V109.314z"/>
<path fill="#6CA642" d="M73.669,79.449c0,5.522-4.477,10-10,10H44.17c-5.523,0-10-4.478-10-10V59.95c0-5.523,4.477-10,10-10h19.499
	c5.523,0,10,4.477,10,10V79.449z"/>
<path fill="#939393" d="M119.719,79.449c0,5.522-4.477,10-10,10H90.22c-5.523,0-10-4.478-10-10V59.95c0-5.523,4.477-10,10-10h19.499
	c5.523,0,10,4.477,10,10V79.449z"/>
<path fill="#939393" d="M165.807,79.449c0,5.522-4.477,10-10,10h-19.5c-5.522,0-10-4.478-10-10V59.95c0-5.523,4.478-10,10-10h19.5
	c5.523,0,10,4.477,10,10V79.449z"/>
<line fill="none" stroke="#2D2D2D" stroke-width="4" stroke-miterlimit="10" x1="58.343" y1="73.273" x2="58.343" y2="95.046"/>
<line fill="none" stroke="#2D2D2D" stroke-width="4" stroke-miterlimit="10" x1="56.38" y1="75.268" x2="78.152" y2="75.268"/>
<line fill="none" stroke="#2D2D2D" stroke-width="4" stroke-miterlimit="10" x1="58.25" y1="75.335" x2="86.583" y2="103.668"/>
</svg>
