<?xml version="1.0" encoding="utf-8"?>
<!-- Generator: Adobe Illustrator 16.0.0, SVG Export Plug-In . SVG Version: 6.00 Build 0)  -->
<!DOCTYPE svg PUBLIC "-//W3C//DTD SVG 1.1//EN" "http://www.w3.org/Graphics/SVG/1.1/DTD/svg11.dtd">
<svg version="1.1" id="Layer_1" xmlns="http://www.w3.org/2000/svg" xmlns:xlink="http://www.w3.org/1999/xlink" x="0px" y="0px"
	 width="200px" height="140px" viewBox="0 0 200 140" enable-background="new 0 0 200 140" xml:space="preserve">
<path fill="#2B2A2A" d="M76.727,81.476H67.2l-50.705-1.022c0,12.591,9.868,19.569,16.504,19.569c4.469,0,22.737,0,34.201,0
	c5.56,0,9.527,0,9.527,0c11.463,0,29.732,0,34.201,0c6.636,0,16.503-6.979,16.503-19.569L76.727,81.476z"/>
<path fill="#C9C9C9" d="M57.671,48.129c0,0,5.103,3.743,0.68,9.869s-7.146,11.569-2.382,14.972c4.765,3.403,2.041,0.511,2.382-3.062
	s0-4.083,3.062-7.486c3.063-3.402,4.425-8.167,0.681-11.229S57.671,48.129,57.671,48.129z"/>
<path fill="#C9C9C9" d="M75.366,27.03c0,0,4.423,12.59-2.723,22.459c-7.146,9.869-4.765,13.272-3.063,18.717
	c1.702,5.444,3.063,5.444,4.083,6.465c1.021,1.021-2.042-7.147-1.361-11.911c0.681-4.764,6.125-11.911,7.146-14.292
	s3.062-13.271-1.021-18.035c-4.083-4.765-4.083-4.765-4.083-4.765L75.366,27.03z"/>
<path fill="#C9C9C9" d="M85.234,48.81c0,0,5.445,5.784-1.021,12.931c-6.466,7.146-2.042,11.229,1.361,12.932
	c3.403,1.701-2.722-1.021,0.681-7.146c3.402-6.125,8.847-9.528,5.444-13.611C88.297,49.831,85.234,48.81,85.234,48.81z"/>
<path fill="#2B2A2A" d="M120.114,84.709c0,0,38.283-3.572,54.106-3.062c15.824,0.511,18.848,7.132,2.553,5.615
	c-21.949-2.042-51.044,3.573-63.806,3.573"/>
</svg>
