<?xml version="1.0" encoding="utf-8"?>
<!-- Generator: Adobe Illustrator 16.0.0, SVG Export Plug-In . SVG Version: 6.00 Build 0)  -->
<!DOCTYPE svg PUBLIC "-//W3C//DTD SVG 1.1//EN" "http://www.w3.org/Graphics/SVG/1.1/DTD/svg11.dtd">
<svg version="1.1" id="Layer_1" xmlns="http://www.w3.org/2000/svg" xmlns:xlink="http://www.w3.org/1999/xlink" x="0px" y="0px"
	 width="200px" height="140px" viewBox="0 0 200 140" enable-background="new 0 0 200 140" xml:space="preserve">
<path fill="#E2E2E2" stroke="#CECECE" stroke-width="9" stroke-miterlimit="10" d="M177.716,109.314c0,5.521-4.478,10-10,10H32.031
	c-5.523,0-10-4.479-10-10V30.278c0-5.523,4.477-10,10-10h135.685c5.522,0,10,4.477,10,10V109.314z"/>
<g>
	<path fill="#FFFFFF" d="M138.501,100.499c0,1.65-1.35,3-3,3H40.833c-1.65,0-3-1.35-3-3v-61c0-1.65,1.35-3,3-3h94.667
		c1.65,0,3,1.35,3,3V100.499z"/>
	<path fill="none" stroke="#BCBCBC" stroke-width="5" stroke-miterlimit="10" d="M138.501,100.499c0,1.65-1.35,3-3,3H40.833
		c-1.65,0-3-1.35-3-3v-61c0-1.65,1.35-3,3-3h94.667c1.65,0,3,1.35,3,3V100.499z"/>
</g>
<path fill="#6D6D6D" d="M153.831,45.84c0,1.473-1.194,2.667-2.667,2.667h-2.999c-1.473,0-2.667-1.194-2.667-2.667l0,0
	c0-1.473,1.194-2.667,2.667-2.667h2.999C152.637,43.173,153.831,44.367,153.831,45.84L153.831,45.84z"/>
<path fill="#6D6D6D" d="M166.844,45.84c0,1.473-1.194,2.667-2.667,2.667h-2.999c-1.473,0-2.667-1.194-2.667-2.667l0,0
	c0-1.473,1.194-2.667,2.667-2.667h2.999C165.649,43.173,166.844,44.367,166.844,45.84L166.844,45.84z"/>
<path fill="#6D6D6D" d="M153.831,54.849c0,1.473-1.194,2.667-2.667,2.667h-2.999c-1.473,0-2.667-1.194-2.667-2.667l0,0
	c0-1.473,1.194-2.667,2.667-2.667h2.999C152.637,52.182,153.831,53.376,153.831,54.849L153.831,54.849z"/>
<path fill="#6D6D6D" d="M166.844,54.849c0,1.473-1.194,2.667-2.667,2.667h-2.999c-1.473,0-2.667-1.194-2.667-2.667l0,0
	c0-1.473,1.194-2.667,2.667-2.667h2.999C165.649,52.182,166.844,53.376,166.844,54.849L166.844,54.849z"/>
<path fill="#6D6D6D" d="M153.831,63.857c0,1.473-1.194,2.667-2.667,2.667h-2.999c-1.473,0-2.667-1.194-2.667-2.667l0,0
	c0-1.473,1.194-2.667,2.667-2.667h2.999C152.637,61.191,153.831,62.385,153.831,63.857L153.831,63.857z"/>
<path fill="#6D6D6D" d="M166.844,63.857c0,1.473-1.194,2.667-2.667,2.667h-2.999c-1.473,0-2.667-1.194-2.667-2.667l0,0
	c0-1.473,1.194-2.667,2.667-2.667h2.999C165.649,61.191,166.844,62.385,166.844,63.857L166.844,63.857z"/>
<path fill="#6D6D6D" d="M153.831,72.866c0,1.473-1.194,2.667-2.667,2.667h-2.999c-1.473,0-2.667-1.194-2.667-2.667l0,0
	c0-1.473,1.194-2.667,2.667-2.667h2.999C152.637,70.199,153.831,71.394,153.831,72.866L153.831,72.866z"/>
<path fill="#6D6D6D" d="M166.844,72.866c0,1.473-1.194,2.667-2.667,2.667h-2.999c-1.473,0-2.667-1.194-2.667-2.667l0,0
	c0-1.473,1.194-2.667,2.667-2.667h2.999C165.649,70.199,166.844,71.394,166.844,72.866L166.844,72.866z"/>
<path fill="#6D6D6D" d="M164.177,79.208h-2.002h-0.997h-1.005h-0.997h-1.005h-0.997h-2.002c-0.001,0-0.001,0-0.002,0
	s-0.001,0-0.002,0h-2.002h-0.997h-1.005h-0.997h-2.002c-1.473,0-2.667,1.194-2.667,2.667s1.194,2.667,2.667,2.667h2.002h0.997h1.005
	h0.997h2.002c0.001,0,0.001,0,0.002,0s0.001,0,0.002,0h2.002h0.997h1.005h0.997h1.005h0.997h2.002c1.473,0,2.667-1.194,2.667-2.667
	S165.649,79.208,164.177,79.208z"/>
<path fill="#6D6D6D" d="M164.177,88.217h-2.002h-0.997h-1.005h-0.997h-1.005h-0.997h-2.002c-0.001,0-0.001,0-0.002,0
	s-0.001,0-0.002,0h-2.002h-0.997h-1.005h-0.997h-2.002c-1.473,0-2.667,1.194-2.667,2.667s1.194,2.667,2.667,2.667h2.002h0.997h1.005
	h0.997h2.002c0.001,0,0.001,0,0.002,0s0.001,0,0.002,0h2.002h0.997h1.005h0.997h1.005h0.997h2.002c1.473,0,2.667-1.194,2.667-2.667
	S165.649,88.217,164.177,88.217z"/>
<path fill="#C9C9C9" d="M78.743,67.758c0,0,3.158,2.316,0.421,6.108c-2.737,3.791-4.423,7.16-1.475,9.267
	c2.949,2.106,1.263,0.316,1.475-1.895c0.211-2.213,0-2.527,1.895-4.634c1.896-2.106,2.739-5.056,0.421-6.949
	C79.163,67.759,78.743,67.758,78.743,67.758z"/>
<path fill="#C9C9C9" d="M89.695,54.699c0,0,2.737,7.793-1.685,13.901c-4.423,6.108-2.949,8.214-1.896,11.584s1.896,3.37,2.527,4.002
	c0.632,0.632-1.264-4.424-0.843-7.372s3.791-7.372,4.423-8.846c0.632-1.474,1.896-8.213-0.632-11.162
	c-2.527-2.949-2.527-2.949-2.527-2.949L89.695,54.699z"/>
<path fill="#C9C9C9" d="M95.803,68.18c0,0,3.369,3.58-0.632,8.003c-4.002,4.423-1.264,6.95,0.842,8.003
	c2.106,1.054-1.685-0.63,0.421-4.421s5.475-5.898,3.37-8.424C97.698,68.812,95.803,68.18,95.803,68.18z"/>
<path fill="#2B2A2A" d="M92.379,89.072h-6.097l-32.449-0.654c0,8.058,6.315,12.523,10.562,12.523c2.86,0,14.551,0,21.887,0
	c3.558,0,6.097,0,6.097,0c7.336,0,19.027,0,21.887,0c4.247,0,10.562-4.467,10.562-12.523L92.379,89.072z"/>
</svg>
