<?xml version="1.0" encoding="utf-8"?>
<!-- Generator: Adobe Illustrator 16.0.0, SVG Export Plug-In . SVG Version: 6.00 Build 0)  -->
<!DOCTYPE svg PUBLIC "-//W3C//DTD SVG 1.1//EN" "http://www.w3.org/Graphics/SVG/1.1/DTD/svg11.dtd">
<svg version="1.1" id="Layer_1" xmlns="http://www.w3.org/2000/svg" xmlns:xlink="http://www.w3.org/1999/xlink" x="0px" y="0px"
	 width="140px" height="140px" viewBox="0 0 140 140" enable-background="new 0 0 140 140" xml:space="preserve">
<circle fill="#398ABC" cx="70.059" cy="69.942" r="69.5"/>
<path fill="#95C83D" d="M70.06,0.442c-0.011,0-0.021,0.001-0.032,0.001v138.999c0.011,0,0.021,0.002,0.032,0.002
	c38.383,0,69.499-31.114,69.499-69.5C139.559,31.559,108.441,0.442,70.06,0.442z"/>
<path fill="#F06667" d="M136.253,48.74C127.287,20.728,101.047,0.442,70.06,0.442c-0.011,0-0.021,0.001-0.032,0.001V70.6
	L136.253,48.74z"/>
<g enable-background="new    ">
	<path fill="#FFFFFF" d="M82.451,26.576l-1.305-1.02c1.006-1.41,1.995-2.205,3.87-2.205c2.1,0,3.465,1.274,3.465,3.149
		c0,1.665-0.87,2.565-2.729,4.08l-2.16,1.8h4.994v1.62h-7.59v-1.455l3.615-3.075c1.439-1.215,1.965-1.89,1.965-2.834
		c0-1.035-0.734-1.636-1.695-1.636C83.922,25.001,83.262,25.526,82.451,26.576z"/>
	<path fill="#FFFFFF" d="M94.871,34.181c-2.76,0-4.56-2.399-4.56-5.414c0-3.016,1.83-5.445,4.59-5.445s4.56,2.4,4.56,5.415
		S97.631,34.181,94.871,34.181z M94.871,24.986c-1.635,0-2.654,1.65-2.654,3.75s1.05,3.779,2.685,3.779s2.655-1.664,2.655-3.749
		S96.506,24.986,94.871,24.986z"/>
</g>
<text transform="matrix(1 0 0 1 100.3164 29.0059)" fill="#FFFFFF" font-family="'GothamHTF-Medium'" font-size="8.745">%</text>
<g enable-background="new    ">
	<path fill="#FFFFFF" d="M83.938,38.682v1.787h4.006v1.68h-4.006v3.25H82.09v-8.396h6.393v1.679H83.938z"/>
	<path fill="#FFFFFF" d="M93.234,45.398v-0.695c-0.443,0.491-1.055,0.815-1.942,0.815c-1.212,0-2.207-0.696-2.207-1.967v-0.024
		c0-1.403,1.067-2.051,2.591-2.051c0.647,0,1.115,0.108,1.57,0.264v-0.107c0-0.756-0.467-1.176-1.379-1.176
		c-0.695,0-1.188,0.132-1.774,0.348l-0.456-1.391c0.707-0.312,1.403-0.516,2.494-0.516c1.991,0,2.867,1.031,2.867,2.771v3.729
		H93.234z M93.271,42.808c-0.312-0.144-0.721-0.239-1.164-0.239c-0.779,0-1.26,0.312-1.26,0.887v0.024
		c0,0.492,0.408,0.779,0.996,0.779c0.852,0,1.428-0.468,1.428-1.127V42.808z"/>
	<path fill="#FFFFFF" d="M98.682,45.507c-1.115,0-1.871-0.444-1.871-1.932v-3.046h-0.768v-1.56h0.768v-1.643h1.823v1.643h1.511v1.56
		h-1.511v2.746c0,0.42,0.18,0.624,0.587,0.624c0.336,0,0.637-0.084,0.9-0.228v1.463C99.737,45.362,99.293,45.507,98.682,45.507z"/>
	<path fill="#FFFFFF" d="M103.746,45.519c-0.9,0-1.907-0.3-2.759-0.972l0.779-1.199c0.696,0.504,1.427,0.768,2.026,0.768
		c0.528,0,0.768-0.192,0.768-0.479v-0.024c0-0.396-0.623-0.527-1.33-0.743c-0.9-0.265-1.92-0.684-1.92-1.932v-0.023
		c0-1.308,1.056-2.039,2.352-2.039c0.814,0,1.703,0.275,2.398,0.743l-0.695,1.26c-0.637-0.372-1.271-0.6-1.74-0.6
		c-0.443,0-0.671,0.191-0.671,0.443v0.024c0,0.359,0.612,0.527,1.308,0.768c0.898,0.3,1.942,0.731,1.942,1.907v0.023
		C106.204,44.871,105.137,45.519,103.746,45.519z"/>
</g>
<g enable-background="new    ">
	<path fill="#FFFFFF" d="M24.904,62.504h6.27v1.636h-4.68l-0.165,2.46c0.495-0.181,0.96-0.301,1.665-0.301
		c2.055,0,3.645,1.08,3.645,3.315c0,2.16-1.56,3.569-3.885,3.569c-1.604,0-2.865-0.645-3.854-1.604l1.14-1.335
		c0.84,0.78,1.725,1.26,2.7,1.26c1.26,0,2.085-0.72,2.085-1.83c0-1.08-0.87-1.755-2.175-1.755c-0.75,0-1.395,0.21-1.935,0.465
		l-1.11-0.734L24.904,62.504z"/>
	<path fill="#FFFFFF" d="M37.939,73.184c-2.76,0-4.56-2.399-4.56-5.414c0-3.016,1.83-5.445,4.59-5.445s4.56,2.4,4.56,5.415
		S40.699,73.184,37.939,73.184z M37.939,63.989c-1.635,0-2.655,1.65-2.655,3.75s1.05,3.779,2.685,3.779s2.655-1.664,2.655-3.749
		S39.574,63.989,37.939,63.989z"/>
</g>
<text transform="matrix(1 0 0 1 43.3838 68.0078)" fill="#FFFFFF" font-family="'GothamHTF-Medium'" font-size="8.745">%</text>
<g enable-background="new    ">
	<path fill="#FFFFFF" d="M23.493,84.546c-2.471,0-4.306-1.906-4.306-4.317v-0.023c0-2.387,1.799-4.342,4.377-4.342
		c1.583,0,2.531,0.527,3.31,1.295L25.7,78.514c-0.647-0.588-1.307-0.947-2.146-0.947c-1.416,0-2.435,1.175-2.435,2.614v0.024
		c0,1.438,0.996,2.638,2.435,2.638c0.959,0,1.547-0.384,2.207-0.983l1.175,1.188C26.072,83.971,25.112,84.546,23.493,84.546z"/>
	<path fill="#FFFFFF" d="M31.989,84.402v-0.695c-0.444,0.491-1.056,0.815-1.943,0.815c-1.211,0-2.207-0.696-2.207-1.967v-0.024
		c0-1.403,1.067-2.051,2.591-2.051c0.647,0,1.115,0.108,1.571,0.264v-0.107c0-0.756-0.468-1.176-1.379-1.176
		c-0.696,0-1.188,0.132-1.775,0.348l-0.456-1.391c0.708-0.312,1.403-0.516,2.495-0.516c1.991,0,2.867,1.031,2.867,2.771v3.729
		H31.989z M32.025,81.812c-0.312-0.144-0.72-0.239-1.164-0.239c-0.78,0-1.259,0.312-1.259,0.887v0.024
		c0,0.492,0.408,0.779,0.996,0.779c0.852,0,1.427-0.468,1.427-1.127V81.812z"/>
	<path fill="#FFFFFF" d="M39.105,79.761c-1.211,0-1.955,0.731-1.955,2.267v2.375h-1.823v-6.429h1.823v1.296
		c0.372-0.888,0.971-1.464,2.051-1.416v1.907H39.105z"/>
	<path fill="#FFFFFF" d="M44.169,84.522c-0.972,0-1.571-0.444-2.003-0.96v0.84h-1.823v-8.755h1.823v3.25
		c0.444-0.6,1.055-1.044,2.003-1.044c1.499,0,2.926,1.176,2.926,3.322V81.2C47.095,83.347,45.692,84.522,44.169,84.522z
		 M45.272,81.176c0-1.067-0.719-1.774-1.571-1.774s-1.559,0.707-1.559,1.774V81.2c0,1.067,0.708,1.775,1.559,1.775
		s1.571-0.696,1.571-1.775V81.176z"/>
	<path fill="#FFFFFF" d="M50.698,84.522c-0.899,0-1.907-0.3-2.758-0.972l0.779-1.199c0.696,0.504,1.427,0.768,2.027,0.768
		c0.528,0,0.768-0.192,0.768-0.479v-0.024c0-0.396-0.624-0.527-1.331-0.743c-0.899-0.265-1.919-0.684-1.919-1.932v-0.023
		c0-1.308,1.055-2.039,2.351-2.039c0.815,0,1.703,0.275,2.399,0.743l-0.696,1.26c-0.636-0.372-1.271-0.6-1.739-0.6
		c-0.443,0-0.671,0.191-0.671,0.443v0.024c0,0.359,0.612,0.527,1.307,0.768c0.899,0.3,1.943,0.731,1.943,1.907v0.023
		C53.156,83.875,52.089,84.522,50.698,84.522z"/>
</g>
<g enable-background="new    ">
	<path fill="#FFFFFF" d="M88.459,82.103v-1.605h6.945v1.381l-2.925,2.999c1.604,0.21,3.09,1.005,3.09,2.971
		c0,1.949-1.5,3.329-3.675,3.329c-1.83,0-3.135-0.765-4.02-1.845l1.289-1.2c0.75,0.886,1.59,1.38,2.76,1.38
		c1.035,0,1.815-0.63,1.815-1.604c0-1.05-0.931-1.635-2.415-1.635h-0.855l-0.299-1.155l2.834-3.015H88.459z"/>
	<path fill="#FFFFFF" d="M101.914,91.177c-2.76,0-4.56-2.399-4.56-5.414c0-3.016,1.83-5.445,4.59-5.445s4.56,2.4,4.56,5.415
		S104.674,91.177,101.914,91.177z M101.914,81.982c-1.635,0-2.654,1.65-2.654,3.75s1.05,3.779,2.685,3.779s2.655-1.664,2.655-3.749
		S103.549,81.982,101.914,81.982z"/>
</g>
<text transform="matrix(1 0 0 1 107.3594 86.002)" fill="#FFFFFF" font-family="'GothamHTF-Medium'" font-size="8.745">%</text>
<g enable-background="new    ">
	<path fill="#FFFFFF" d="M82.316,99.876h-1.403v2.519h-1.847v-8.396h3.43c2.003,0,3.215,1.188,3.215,2.902v0.024
		C85.711,98.868,84.199,99.876,82.316,99.876z M83.84,96.938c0-0.827-0.576-1.271-1.5-1.271h-1.427v2.566h1.463
		c0.924,0,1.464-0.552,1.464-1.271V96.938z"/>
	<path fill="#FFFFFF" d="M90.668,97.753c-1.211,0-1.955,0.731-1.955,2.267v2.375h-1.822v-6.429h1.822v1.296
		c0.372-0.888,0.972-1.464,2.051-1.416v1.907H90.668z"/>
	<path fill="#FFFFFF" d="M94.879,102.538c-1.99,0-3.466-1.475-3.466-3.322v-0.023c0-1.847,1.487-3.347,3.489-3.347
		c1.992,0,3.467,1.476,3.467,3.322v0.024C98.369,101.039,96.882,102.538,94.879,102.538z M96.57,99.192
		c0-0.947-0.684-1.775-1.691-1.775c-1.043,0-1.667,0.804-1.667,1.751v0.024c0,0.947,0.684,1.775,1.69,1.775
		c1.044,0,1.668-0.804,1.668-1.752V99.192z"/>
	<path fill="#FFFFFF" d="M101.863,102.503c-1.115,0-1.871-0.444-1.871-1.932v-3.046h-0.768v-1.56h0.768v-1.643h1.823v1.643h1.511
		v1.56h-1.511v2.746c0,0.42,0.18,0.624,0.587,0.624c0.336,0,0.637-0.084,0.9-0.228v1.463
		C102.919,102.358,102.475,102.503,101.863,102.503z"/>
	<path fill="#FFFFFF" d="M110.463,99.816h-4.473c0.18,0.827,0.755,1.259,1.57,1.259c0.611,0,1.056-0.191,1.559-0.659l1.044,0.923
		c-0.6,0.744-1.463,1.199-2.626,1.199c-1.932,0-3.358-1.354-3.358-3.322v-0.023c0-1.835,1.308-3.347,3.179-3.347
		c2.146,0,3.13,1.668,3.13,3.49v0.024C110.487,99.54,110.475,99.648,110.463,99.816z M107.357,97.31
		c-0.756,0-1.248,0.539-1.393,1.367h2.747C108.604,97.861,108.125,97.31,107.357,97.31z"/>
	<path fill="#FFFFFF" d="M111.883,95.259V93.64h1.918v1.619H111.883z M111.93,102.395v-6.429h1.824v6.429H111.93z"/>
	<path fill="#FFFFFF" d="M119.536,102.395v-3.586c0-0.863-0.407-1.308-1.104-1.308c-0.695,0-1.14,0.444-1.14,1.308v3.586h-1.822
		v-6.429h1.822v0.912c0.42-0.54,0.96-1.032,1.883-1.032c1.38,0,2.184,0.912,2.184,2.387v4.162H119.536z"/>
</g>
<rect x="69.334" fill="#FFFFFF" width="1.167" height="171.333"/>
<rect x="150.833" y="-41.512" transform="matrix(0.3086 0.9512 -0.9512 0.3086 146.6962 -113.4969)" fill="#FFFFFF" width="1.168" height="171.336"/>
</svg>
