<?xml version="1.0" encoding="utf-8"?>
<!-- Generator: Adobe Illustrator 16.0.0, SVG Export Plug-In . SVG Version: 6.00 Build 0)  -->
<!DOCTYPE svg PUBLIC "-//W3C//DTD SVG 1.1//EN" "http://www.w3.org/Graphics/SVG/1.1/DTD/svg11.dtd">
<svg version="1.1" id="Layer_1" xmlns="http://www.w3.org/2000/svg" xmlns:xlink="http://www.w3.org/1999/xlink" x="0px" y="0px"
	 width="28px" height="28px" viewBox="0 0 28 28" enable-background="new 0 0 28 28" xml:space="preserve">
<g id="icomoon-ignore">
</g>
<path fill="#51546B" d="M20,9.531c-0.584,0.26-1.214,0.438-1.891,0.531c0.707-0.417,1.191-1.026,1.453-1.828
	c-0.678,0.396-1.376,0.662-2.095,0.797C16.832,8.344,16.035,8,15.077,8c-0.906,0-1.68,0.32-2.32,0.961s-0.961,1.414-0.961,2.32
	c0,0.302,0.026,0.552,0.078,0.75c-1.344-0.073-2.604-0.412-3.781-1.016c-1.176-0.605-2.176-1.412-3-2.422
	C4.791,9.114,4.64,9.666,4.64,10.249c0,1.188,0.474,2.099,1.422,2.734c-0.489-0.011-1.01-0.146-1.563-0.406v0.031
	c0,0.781,0.26,1.477,0.781,2.085c0.521,0.609,1.162,0.988,1.922,1.134C6.9,15.91,6.634,15.952,6.405,15.952
	c-0.135,0-0.338-0.021-0.609-0.063c0.219,0.656,0.607,1.198,1.164,1.625c0.558,0.428,1.19,0.646,1.898,0.656
	c-1.208,0.938-2.568,1.406-4.078,1.406c-0.271,0-0.531-0.016-0.781-0.047c1.542,0.979,3.218,1.469,5.031,1.469
	c1.167,0,2.261-0.186,3.281-0.555c1.021-0.37,1.896-0.865,2.625-1.484c0.73-0.619,1.357-1.333,1.883-2.141
	c0.527-0.809,0.918-1.652,1.173-2.531c0.255-0.879,0.383-1.757,0.383-2.633c0-0.187-0.005-0.328-0.017-0.422
	c0.656-0.469,1.203-1.036,1.642-1.703L20,9.531z M24,6.5v15c0,1.239-0.439,2.299-1.32,3.18C21.8,25.561,20.74,26,19.5,26h-15
	c-1.239,0-2.299-0.439-3.18-1.32C0.439,23.8,0,22.74,0,21.5v-15c0-1.239,0.44-2.299,1.32-3.18C2.2,2.439,3.26,2,4.5,2h15
	c1.239,0,2.299,0.44,3.18,1.32C23.561,4.2,24,5.26,24,6.5z"/>
</svg>
